<svg id="Layer_1" data-name="Layer 1" xmlns="http://www.w3.org/2000/svg" viewBox="0 0 844.93 837.45"><defs><style>.cls-1{fill:#e40520;}</style></defs><title>aldo coppola</title><path class="cls-1" d="M248.3,395.67l40.61-92.22h7l39.58,92.22H319.11L308.84,371H275.09l-10.5,24.71Zm43.86-64.52-10.93,25.64h21.65l-10.72-25.64Z" transform="translate(-4.68 -3.38)"/><polygon class="cls-1" points="343.52 392.29 343.52 300.07 358.39 300.07 358.39 378.12 382.4 378.11 382.4 392.29 343.52 392.29"/><path class="cls-1" d="M471.2,349.67c0,13.38-4.89,25.3-15.07,34.37-11.06,9.85-22.22,11.63-36.11,11.63H401.28V303.45h19c13.31,0,24.66,1.77,35.62,11.13,10.58,9.11,15.33,21.53,15.33,35.09Zm-25.3-24.26c-7.27-6.43-15.27-7.79-25.3-7.79h-4.47V381.5h4.47c10.35,0,18.44-1.46,25.7-8.3a31.85,31.85,0,0,0,10-23.63c0-9.28-3.56-18.13-10.44-24.15Z" transform="translate(-4.68 -3.38)"/><path class="cls-1" d="M530.45,302c26.23,0,48,21.34,48,47.72s-21.75,47.49-48,47.49-48-21-48-47.49,21.73-47.72,48-47.72Zm0,14.18a33.18,33.18,0,0,0-33.09,33.43c0,18.24,14.81,33.44,33.09,33.44s33.1-15.2,33.1-33.44a33.18,33.18,0,0,0-33.1-33.43Z" transform="translate(-4.68 -3.38)"/><path class="cls-1" d="M617.14,517l40.62-92.21h7L704.33,517H688l-10.28-24.71H643.93L633.43,517ZM661,452.5l-11,25.64h21.66L661,452.5Z" transform="translate(-4.68 -3.38)"/><path class="cls-1" d="M146.33,470.91c0,17.82,14.73,33.44,32.75,33.44,9,0,18-4.27,24.49-10.8l4.41-4.4v19.56c-9,6.5-18.74,9.8-28.56,9.8-25.95,0-48-21.06-48-47.25a48.12,48.12,0,0,1,48-48A44.68,44.68,0,0,1,207,432.36l1.2,20.63-4.6-4.76a34.71,34.71,0,0,0-24.71-10.76c-17.87,0-32.51,15.6-32.51,33.44Z" transform="translate(-4.68 -3.38)"/><path class="cls-1" d="M267.73,423.3c26.23,0,47.95,21.35,47.95,47.72,0,26.53-21.75,47.49-47.95,47.49s-48-21-48-47.49c0-26.37,21.73-47.72,48-47.72Zm0,14.18a33.18,33.18,0,0,0-33.09,33.43c0,18.25,14.81,33.44,33.09,33.44s33.09-15.2,33.09-33.44a33.19,33.19,0,0,0-33.09-33.43Z" transform="translate(-4.68 -3.38)"/><path class="cls-1" d="M347.91,424.81c7.42,0,16,.17,23.06,5.08,7.27,5.06,10.93,13.54,10.93,22,0,7.7-3.15,15.64-9.25,20.71-6.61,5.44-14.91,6.36-22.31,6.36h-4.46V517H331V424.81ZM346.86,439h-1v25.77h3.88c10.39,0,17.27-3,17.27-13.13,0-11.43-8.39-12.64-20.17-12.64Z" transform="translate(-4.68 -3.38)"/><path class="cls-1" d="M415.74,424.81c7.42,0,16,.17,23.05,5.08,7.27,5.06,10.94,13.54,10.94,22,0,7.7-3.15,15.64-9.26,20.71-6.62,5.44-14.9,6.36-22.31,6.36h-4.45V517H398.84V424.81Zm-1,14.17h-1v25.77h3.88c10.39,0,17.28-3,17.28-13.13,0-11.43-8.38-12.64-20.16-12.64Z" transform="translate(-4.68 -3.38)"/><path class="cls-1" d="M508,423.3c26.22,0,48,21.35,48,47.72,0,26.53-21.75,47.49-48,47.49s-48-21-48-47.49c0-26.37,21.73-47.72,48-47.72Zm0,14.18a33.19,33.19,0,0,0-33.09,33.43c0,18.25,14.81,33.44,33.09,33.44s33.1-15.2,33.1-33.44A33.2,33.2,0,0,0,508,437.48Z" transform="translate(-4.68 -3.38)"/><polygon class="cls-1" points="566.55 513.64 566.55 421.43 581.42 421.43 581.42 499.47 605.43 499.47 605.43 513.64 566.55 513.64"/><path class="cls-1" d="M352.14,76.27l-.95.44a4.29,4.29,0,0,0-1.24.88l-.47.55-.53.64a5.22,5.22,0,0,1-4.43,2,7.18,7.18,0,0,1-2.1-.2l-.57-.12-.74-1a1.48,1.48,0,0,0-.75-.62l-1-.38,0-1.1a2.63,2.63,0,0,1,.37-1.44,3.59,3.59,0,0,1,.59-.73l1.26-1.33a3.49,3.49,0,0,1,.89-.15h.68c.33,0,.71,0,1.05,0A14.43,14.43,0,0,1,346.48,72c.23-.06.41-.15.63-.22a6.59,6.59,0,0,1,3.82.24l1.22.32v4ZM248,80.84l-2.56.57-.49.64-.89.66-1.43.56-2.34.8-3,1.26a3.25,3.25,0,0,1-.86.13,3.84,3.84,0,0,1-3.55-2c-.21-.37-.4-.79-.61-1.19a2.4,2.4,0,0,0-.44-.67L231,79.82l3.19-1.06V77.65h2.41l2.82-.09h1.86l1.85.23V76.62H248v4.22ZM724.33,668.68a9.21,9.21,0,0,0-.82.61,2.11,2.11,0,0,0-1-.06.54.54,0,0,0,.66.54l1.5-.23-1.07,1.06c-7.61,7.57-15.71,16.21-23.23,23.59-.51.5-1.12,1.19-1.76,1.89a20.19,20.19,0,0,1-2.11,2,22.82,22.82,0,0,0-4.25,5.36,1.62,1.62,0,0,1-.82.49l-.48.08-.58.06-.54.57a4.43,4.43,0,0,0-.69.9,21.55,21.55,0,0,0-3.1,2.07c-.87.71-1.56,1.39-1.94,1.71a16.73,16.73,0,0,0-3.9,2.7c-.65.57-1.31,1.14-1.92,1.64a14.06,14.06,0,0,1-1.87,1.35,22,22,0,0,0-3.37,2.59l-1.38,1.25a10.58,10.58,0,0,1-1.22.9,2.13,2.13,0,0,1-.27.93,12.11,12.11,0,0,0-2.23,1.89c-.33.34-.65.67-1,1a7.5,7.5,0,0,1-1.18.9,21.4,21.4,0,0,0-6,5.42c-1.94,1.54-4.18,3-6.27,4.61a22.9,22.9,0,0,0-5.06,4.84l-.85.46-.54.23a3.87,3.87,0,0,1-1.37.38c-2.11.23-4.86,2.08-7.53,4.38s-4.91,4.74-6,5.88l-.51.27a17.32,17.32,0,0,0-2.41.46,16.2,16.2,0,0,1-2.4.44l-.47.58a21.25,21.25,0,0,1-3.2,1.67l-3.37,1.43a14.81,14.81,0,0,0-5.49,3.53l-.55.31a5.55,5.55,0,0,0-.81.17l-.84.28a8.76,8.76,0,0,1-1.56.44l-.07.65-.16,1.08-1-.48c-.54-.25-1-.08-1.58.48a5.78,5.78,0,0,0-.73,1c-.22.35-.38.66-.49.86a11,11,0,0,1-1.75,1.06,4.09,4.09,0,0,0-1.16.89l-.49.26a12.83,12.83,0,0,1-1.83.07,8.81,8.81,0,0,0-1.8.15,17.62,17.62,0,0,0-4.33,2.14,6.4,6.4,0,0,1-1.55.25l-1,.06a3,3,0,0,1-.24.8,7.06,7.06,0,0,0-1.81,1.38,5.11,5.11,0,0,0-.46.61l-.49.81a16.69,16.69,0,0,1-1.73,1,4,4,0,0,0-1.15.88,4.71,4.71,0,0,1-1.74.41l-1,0-.76.63a8.06,8.06,0,0,0-.92.54l-.54.75h-.49c-2.43,0-4.22.2-5.09,2-.65.48-.85.48-1,.48a7.43,7.43,0,0,0-.94-.06v1l-.84,0c-1.8.09-2.2.34-3,1.84l-4.16.42v-3l.54-.2a2.79,2.79,0,0,0,1.73-1.63l.65-.47a24.35,24.35,0,0,1,2.85-.11c.26-.73.57-1.37,1-2.22l.51-.44a2.36,2.36,0,0,1,.58-.07,1.12,1.12,0,0,0,.94-.69l4.6-.43a2.93,2.93,0,0,1,2.87-1.85,4.14,4.14,0,0,1,3.16-1.9l.23-.61a19.06,19.06,0,0,1,2.35-.26,4.81,4.81,0,0,1,1.11-1.31,18.63,18.63,0,0,1,2-1.51c.7-.48,1.43-.94,2.06-1.42a6.51,6.51,0,0,0,1.38-1.25l.77-.34c1.69.2,5.82-2,7.21-3.27a18,18,0,0,1,1.6-1.29c.57-.41,1.16-.83,1.77-1.24a30.78,30.78,0,0,0,3.21-2.42,26.59,26.59,0,0,0,7.12-2.93,65.06,65.06,0,0,1,7-3.68l.23-.74a24.91,24.91,0,0,0,3.39-1.72c1.07-.66,2.19-1.38,3.3-2.11,3.22-2,6.21-4.77,9.69-7.13,2.39-1.62,5-3.12,7.72-4.69a77.74,77.74,0,0,0,7.65-5,2.64,2.64,0,0,0,.62-.72c.19-.34.36-.74.59-1.22l.6-.46a3.89,3.89,0,0,1,.74,0l.65,0,.58,0c1.75-1.37,4.36-3.18,6.82-5.16a25,25,0,0,0,5.79-6l1.11-.65a5.06,5.06,0,0,1,.75-.25l.43-.6a1.8,1.8,0,0,0,.34-.67L675,710a2.06,2.06,0,0,1,.5-.13l.94-.11a5.15,5.15,0,0,1,1.87-1.51c.42-.23.89-.48,1.41-.79a12.78,12.78,0,0,0,1.56-1.09l.35-.64.28-.57a2.57,2.57,0,0,1,.41-.6c6.55-6.67,13.36-13.45,21.05-20.75a31,31,0,0,0,6.35-5.35c2.18-2.22,4.35-4.64,6.3-6.48l.16-.76a4.53,4.53,0,0,1,.66-.85A5.19,5.19,0,0,0,718,669c.61-.49.79-.52.9-.54l.43-.89a5.44,5.44,0,0,0,.21-1.17l0-.68.68-.08.6-.06c.25-.37.57-.83.84-1.32s.73-1.31,1.13-2c2.85-1.75,9.77-9.37,9.43-12.91l-.08-.8.8-.1c.38-.06.88-.06,1.4-.12,1.53-2.17,4.3-6.45,6.35-9.59.81-1.25,1.73-2.38,2.6-3.57a15.8,15.8,0,0,0,2.14-3.65,90.68,90.68,0,0,0,5.89-8.17c1.94-3,3.74-5.81,4.88-7.46.48-.68,1.15-1.34,1.71-2.11a4,4,0,0,0,.88-2.34l.33-.62a4.34,4.34,0,0,0,.68-.78l.35-.53c.12-.16.27-.34.41-.5a.83.83,0,0,0,.21-.5c.06-.34.05-.69.1-1l.27-.48a3.49,3.49,0,0,0,.57-.79,6.22,6.22,0,0,1,1.68-2.16l1.14-.88.08-.66.12-.55a7,7,0,0,1,1.18-1.28c.31-.25.59-.45.84-.69a2.35,2.35,0,0,0,.66-1.9l0-.49a4.93,4.93,0,0,0,1.54-1.1l.6-.62.49-.71a4.26,4.26,0,0,1,.14-.84,12.63,12.63,0,0,0,2.58-3.67,2.36,2.36,0,0,0,.09-.81v-.66a5.09,5.09,0,0,1,.06-.71l.49-.62A1.71,1.71,0,0,0,774,587c.12-.33.28-.67.42-1a5.29,5.29,0,0,0,.57-2l0-.5.82-.32c2.59-5.58,5.31-11.48,7.45-17,1.7-2.21,3.48-5.81,3-8.31l-.08-.49a13.59,13.59,0,0,0,4.09-5.92c1-2.38,1.69-5,2.57-7.37a3.7,3.7,0,0,1,.42-.71l.51-.55.65-.73a12,12,0,0,0,1.07-6.16l-.12-.82.83-.11.64,0c.49-1.52,1.19-3.07,1.73-4.62a10.13,10.13,0,0,0,.76-4.48l.35-.75c.76-.57,1.36-2,1.93-4s1-4.17,1.6-5.84l.49-.5a2.81,2.81,0,0,0,.69-.53c.34-.32.68-.65.95-.87l1.33-1.08v3.91c0,.69-.27,1-.62,1.11v4.54a2.8,2.8,0,0,1-.25,1.05c-.13.28-.3.59-.45.89s-.29.54-.41.8a1.7,1.7,0,0,0-.19.59c-.21,1.77-.22,3.61-.58,5.34a7.36,7.36,0,0,1-1,2.37c-.41.68-.87,1.36-1.23,2.09a1.4,1.4,0,0,0-.09.62v.54a3.37,3.37,0,0,1-.08.66,6.6,6.6,0,0,0-1.74,3.22c-.47.53-.6.58-.7.62a47.47,47.47,0,0,1-.89,4.74l-.15.65h-1.05l-.1.74c-.06.51-.09,1-.16,1.53l-.27.48-.81.71a3.73,3.73,0,0,1-.57.44c-1.4,4.79-2.93,10.38-4.57,15.33-1.74,5.11-4.73,10.38-6.95,15.23-.44.44-.58.5-.67.53-3.7,7-7.51,14.39-10.67,21.33l-6,13.2a2.13,2.13,0,0,0-1.53,1.7,4.42,4.42,0,0,0-1,1.19l-.37.63a3.19,3.19,0,0,1-.58.68c-2,1.74-3.79,3.57-4.45,6.38l-.18.79-.79-.16a1.27,1.27,0,0,0-1.49.58,6.13,6.13,0,0,0-.71,2.38l-.34.58a17.67,17.67,0,0,0-3.76,3.14,1.18,1.18,0,0,0-.2.58c-.08.36-.1.74-.19,1.07l-.34.49a1.56,1.56,0,0,1-.52.21c-.51,1-.86,1.83-1.29,2.67-1.64,1.07-2.59,1.74-2.65,3.13l0,.54-.49.2a4.07,4.07,0,0,0-1.35.91l-.62.6a17.06,17.06,0,0,1-1.72,3.11,13.22,13.22,0,0,1-1.05,1.26l-1.16,1.21a13.58,13.58,0,0,0-3.95,5.72c-.64.75-1.12,1.32-1.65,2s-1.06,1.43-1.58,2.13c-1.05,1.42-2.24,2.69-3.28,3.9a10.59,10.59,0,0,0-2.11,3.22,6.54,6.54,0,0,1-1.46,1.34l-1.28.92Zm-.82.61c-.65.5-.94.43-1.07,0a1.49,1.49,0,0,1,.76,0l.31.07ZM558.73,780.41v-.65h4.39l-1.72,1.45a5.16,5.16,0,0,0-1.88,2.33l-.17.48-.51.05a15.2,15.2,0,0,0-5.31,1.81c-1.74.9-3.41,1.93-5.21,2.67l-3.57.07,1-1.33c.36-.44.7-.82,1-1.27a6.08,6.08,0,0,0,.75-1.47l.62-.53a5.49,5.49,0,0,0,1-.24c3.16-1.48,4.35-1.88,4.88-2.92l4.7-.45ZM421.46,3.39h28.35c.86-.05.83.33,1.13.53,2,.12,4.08.47,6.27.52V9.6h-12a5.62,5.62,0,0,0-.31-2.08,1.15,1.15,0,0,0-.94.87,3.83,3.83,0,0,1-1.72.2,2.65,2.65,0,0,1-2.15-1.06H423.27c-.8-1.06-3.11-1,.6-.93l-2.41-3.21Zm-24.5,1v4.2a1,1,0,0,0-1,1.06h-9c-.29.34-.24.56-.29,1.06h-10.4a4.16,4.16,0,0,1-2.11.73,5.53,5.53,0,0,1-1.75-.17c-.13-.29-.5-.62-1.11.12V7c-.06-.88,1-.37,1.09-1.07.6-.23,3.28,1,2.67-1.59ZM358.15,6.9h6.78a12.54,12.54,0,0,1,0,5.52c-1.49,0-3.21,1.09-4.06,1.09-2.16,0-1.52-1-3.56-1.11V9.2c.11-1.47.79-1.83.84-2.3Zm.07,8.41h5.34v4.84h-6.42c-.23-.7-.23-1-1.07-1.44V17.1c1.12-.42,1.4-1.07,2.15-1.79ZM473.78,46.24h6.11a2.23,2.23,0,0,0,1.95,1.08c.19.34.12.62.43.82,1.68.12,3.39.83,5.05.93a2.46,2.46,0,0,0,2.24,1v4.84h-4.68c-.91-1.35-1.33-1-1.46-1-.87,0-1.89,1-2.75,1-1.29,0-.58-.54-1.6-1-1-.08-2.37-.08-3.5-.12-.29-.79-.56-1.67-1.74-1.77-.05-4-.05-4.39.09-4.72.33-.13.65-.5-.14-1.11ZM456.3,52.87h9.87c0,.49,0,.69.26.9a14.17,14.17,0,0,1,2.54.47H471l2.72,2.07a2,2,0,0,0,.55,1.58,42.77,42.77,0,0,0,.15,7.11c-.73.77-1.38,1.07-1.9,2a3.87,3.87,0,0,1-1.7.19,6.13,6.13,0,0,1-1.7-.14c-.75-.43-.83-1.51-1.5-2l-2.2-1.48-1.77-1.38-.2-1.46c-1.5-.72-2.49-.06-2.73-1.36a1,1,0,0,0-.81,1h-4.37a1,1,0,0,0-1-1V54.64c.83-.06,1.35-.64,1.76-1.77Zm20.25,5.66h7.12c1,1.53,2.17,2.63,2.17,4.66a5.47,5.47,0,0,1-.18,1.73,3.83,3.83,0,0,0-2,2.27h-5c-.41-1.14-1.4-1.41-2.12-2.18,0-4.63,0-5,.11-5.37.33-.13.65-.51-.12-1.11Zm21,4.86h4.31c1.08.89,1.33,2.08,3.15,1.78-.18,1.2.68,1.86,1.68,2.34l2,1,3.41.44h2.21c.84,1.29,1.68.79,2.32,1.17a1.57,1.57,0,0,0,1.16.61v5.51A1.86,1.86,0,0,0,516,77.37h-3.42l-2.71-.23-2.46-1.55-2.64-.71-2.47-1.36c-2.5-.81-3.41-3-5.61-4.65V65.72c.13-1.47.81-1.84.87-2.33ZM346.26,41.25a.85.85,0,0,0,.46-.5h1a3.3,3.3,0,0,0,2.37-1.06c.88.07,1.35.13,1.79.14a2.5,2.5,0,0,0,2.42-1.25H361a1.77,1.77,0,0,0,.74-.13.89.89,0,0,0,.51-.61c.44,0,.86,0,1.28-.11a1.53,1.53,0,0,0,.91-1.24,2.35,2.35,0,0,0,1.42-.72h8.22a2.37,2.37,0,0,0,.65-1.05h11.62a1,1,0,0,0,1.11-.73h5c.11.37.41.71,1.14.71h4.83a1,1,0,0,0,1.12-.7h7.94a2.17,2.17,0,0,0,.66-1h13.24a1.67,1.67,0,0,0,.42.75l12.15.26.55.54c1.06.13,2.23.15,3.42.23a4,4,0,0,0,1.63,1.57l.13.49a6.57,6.57,0,0,0,.42,1.05,3.34,3.34,0,0,0,1.53,1.56c0,.37,0,.74.08.94l.54.64a3.09,3.09,0,0,1,.94.71l.61.64.59.57a7.38,7.38,0,0,0,.69,1.39c0,.2,0,.48,0,.72a2.34,2.34,0,0,0,1,1.64V50.9a1.54,1.54,0,0,0,1.1,1.46A10.5,10.5,0,0,0,449,53l1,.27a11.78,11.78,0,0,0,1.69.38,5.42,5.42,0,0,0,.52,1.28c.12.24.24.46.33.69.1.77,0,.95,0,1a5,5,0,0,0-1.45,1.94c-1.58-.07-3.94.56-3.94,2.85a2.54,2.54,0,0,0,.51,1.52l.54.7.68.43c2.16.1,4.37.7,6.57.9.12.24.26.45.39.67l.81,1.07a2.74,2.74,0,0,0,.77.72,7.45,7.45,0,0,0,.79.46,6.74,6.74,0,0,1,.64.38l.36.93a3.82,3.82,0,0,0,.36,1.14l.54.39A6.27,6.27,0,0,1,463,72.87l9.9.45a2.2,2.2,0,0,0,.65-1h8.7a2.73,2.73,0,0,0,2.1,1,1.55,1.55,0,0,1,.55.12,1.21,1.21,0,0,1,.5.55l4.4.4v1.79l.9-.08a30.32,30.32,0,0,1,6.18,0,5,5,0,0,0,1.67,2.15c.35.29.74.56,1.11.83a6.62,6.62,0,0,1,.91.75l.58.65a4.94,4.94,0,0,0,.65.64,3.18,3.18,0,0,0,1.6.67A3.45,3.45,0,0,0,505.74,83c.46.08,1,.13,1.48.21l.82.14v1.22h.82c.81,0,1.46.63,2.26,1.79.39.57.76,1.18,1.17,1.7a5.37,5.37,0,0,0,1.25,1.22,9.76,9.76,0,0,1,0,1.14l0,.5a2,2,0,0,0,1.19.38,1,1,0,0,1,1,.58l4.77.37a6.38,6.38,0,0,0,2.13,1.61c.67.31,1.41.55,2.38,1a7.94,7.94,0,0,0,.45,1.49l.33.77.35,1.23.76-.11a1.87,1.87,0,0,0,1.36-1,2.84,2.84,0,0,0,.52-.09,2.47,2.47,0,0,0,1.36-1H535c1.47,1.63,2.3,1.89,5.12,2.37V105c-.39.26-.78.46-1.14.68a6.53,6.53,0,0,0-1.36,1,9,9,0,0,0-1.33-.1c-.57,0-1.67.25-1.83,1.23l-.77.14a2.31,2.31,0,0,0-.57.16l-1.51.56,1.33.89a1.63,1.63,0,0,0,.64.26v1L533,111c-.9.43-1.24.81-1.43,1.38H527a8.85,8.85,0,0,0-1.31-1.24l-.71-.59a2.62,2.62,0,0,1-.46-.53l-.6-.34-1-.08-.55-.07a7,7,0,0,0-.83-1.14l-.49-.49a2.48,2.48,0,0,1-1.09-2.17c-.45-.93-1-1-1.24-1v-2.11c-.6-.53-.67-.59-.81-.64l-.9-.05a2,2,0,0,0-1.17.44,5.08,5.08,0,0,0-.83.84,18.2,18.2,0,0,0-1.1,1.51h-6.72a4.82,4.82,0,0,0-2.27-.7,8.09,8.09,0,0,0-.11-1.16,3.36,3.36,0,0,0-2.32-1.35l-.92-.15a3.35,3.35,0,0,1-.73-.2,9.78,9.78,0,0,0-2.49-.71,1.93,1.93,0,0,0-.42-.73l-.64-.26a1.63,1.63,0,0,0-1.45,1H490a1,1,0,0,0-1.11.73h-7.6l-.89-.52a8.59,8.59,0,0,1-1.22-3.07l-.13-.65h-1.92a2.16,2.16,0,0,0-.65,1.21l-1.12.17v-.67a2.31,2.31,0,0,0-1.4-.67c-.35-1.59-1.28-1.75-1.82-1.67l-.53.1a3,3,0,0,0-1.21-.77,2.71,2.71,0,0,0-.68-.12H468a1.76,1.76,0,0,0-.94.2l-.71.63-.77.82c-.81.09-1.8.28-2.7.46l-1.37.26a6.88,6.88,0,0,1-.82.09,2.38,2.38,0,0,0-1.59-.7h-8.18a1.54,1.54,0,0,1-.72-.26l-.52-.3c-.31-.38-.41-.65-.66-.94l-9.58-.28a1.62,1.62,0,0,0-.43-.77l-12.67-.26c-21.75-4.08-48.59.54-74.9,7.87s-52.29,17.47-72.31,24.5c-3.76,6.61-22,18.88-41.56,31.8-9.72,6.41-19.65,12.92-28,18.84s-15.23,11.28-18.78,15.39c-2.11,2.45-5.51,5.73-8.85,9.09a72.71,72.71,0,0,0-8.61,9.83c-.21.32-4,4.36-7.9,8.55L160.07,225c-1.43,1.56-2.54,2.77-2.73,3.05-25.76,38.59-37.21,66.61-53.68,110.3-.93,2.49-7.49,27.61-8.71,42.26-2.24,26.67-4.3,47.07-3.68,67.31s3.93,40.41,12.45,66.46c.56,1.71,4.8,13.85,5.27,15.57,3.86,13.89,16,43.85,24.62,56.72,9.52,20.27,34.12,52.87,49.6,67.51,17.1,16.2,34.45,30,42.91,35.59a8.68,8.68,0,0,1,2.45.89c1.69,2.59,4.32,4.64,8.15,6.36l.6.77.55.49c.5.09.94.1,1.35.16a4,4,0,0,1,1,.81l.47.52a2.44,2.44,0,0,1,.58.84l.65.54c.34.05.72,0,1.1.06a2.81,2.81,0,0,1,.79.09,15.54,15.54,0,0,1,4.6,2.69l.5.76.36.57a2.64,2.64,0,0,0,.54.58,3.28,3.28,0,0,0,1.87.65c.42,0,.87,0,1.3,0a2.35,2.35,0,0,0,.64.73,12.43,12.43,0,0,1,2,1c.59.38,1.13.8,1.66,1.19a10.39,10.39,0,0,0,3.42,1.92,3.35,3.35,0,0,0,1.24.78c.23.09.44.15.65.21a1.47,1.47,0,0,0,.63.85,69,69,0,0,1,8.42,3.46c2.79,1.32,5.55,2.72,8.09,3.83a4.23,4.23,0,0,1,.8.86l.54.39a45.87,45.87,0,0,1,8.72,3.2c3.09,1.36,6.18,2.82,9.05,3.78,3.83,1.27,8.28,1.85,12,2.64a2.68,2.68,0,0,0,2.63,1.33c.51,0,1.07,0,1.62,0a5.55,5.55,0,0,1,1.37.14c3.51,1,7.07,2.8,10.28,4a89.73,89.73,0,0,0,17.09,5c111.75,17.69,185-.15,275.68-68.21C667.05,638,699.7,593.73,728.67,526c.85-2,1.73-4,2.46-6a39,39,0,0,0,1.64-5.16,1.32,1.32,0,0,0,.82-.59c.12-3,.81-6.22,2.06-8.06a75.58,75.58,0,0,1,3.87-14.58,46.17,46.17,0,0,0,1.76-7.48c.47-2.6,1.41-7.25,1.72-9.5.9-6.63,2.36-13,3.22-18.95.95-6.62.61-10.58.7-14.47.36-.46,1-.62,1.06-1.39V416.23a1.63,1.63,0,0,0,.76-.43l.26-6.43a2.23,2.23,0,0,0-1-.67v-4.61a2.5,2.5,0,0,0-1-.66v-6.09a2.72,2.72,0,0,0,.94-1.19,1.52,1.52,0,0,0,.08-.67l0-.53a1.51,1.51,0,0,0-.16-.71,1.77,1.77,0,0,0-.54-.58l-.32-4.77a1.78,1.78,0,0,0-.14-.77.81.81,0,0,0-.55-.45,14.84,14.84,0,0,0-.14-1.62,1.49,1.49,0,0,0-1.22-.92c0-1.7-.11-3.88-.68-10.53l-.05-.67-.66-.08-.26-1c0-.25.06-.51.07-.75a2.64,2.64,0,0,0-.14-.88,1.83,1.83,0,0,0-1-1.08v-4.1a1.4,1.4,0,0,0-.4-1,1.31,1.31,0,0,0,.37-1v-5.31a1.62,1.62,0,0,0-1-1.55,4.46,4.46,0,0,0-.67-.2c-.24-.23-.36-.44-.58-.64a2.63,2.63,0,0,0-1.32-.67,71.06,71.06,0,0,1-2.59-8.12,1.35,1.35,0,0,0,.68-1.28,1.45,1.45,0,0,0-1-1.61c-1.42-3.09-2.17-6.22-3.4-9.33a1.56,1.56,0,0,1,0-.63c0-.37.09-.75.11-1.1a2,2,0,0,0-1.12-2.18c-.05-.47-.09-.84-.14-1.17l-.7-.92a4,4,0,0,0-.62-.51,3.79,3.79,0,0,0-1.38-.53,2.3,2.3,0,0,0-.41-.86,3.42,3.42,0,0,1-.51-.85c0-.75,0-1.05,0-1.32a1.64,1.64,0,0,0-1.12-1.63,4.65,4.65,0,0,0-.94-1.51,3.06,3.06,0,0,0-.25-.81,5.41,5.41,0,0,0-.43-.87,3.29,3.29,0,0,1-.53-1.35l-.34-.61c-3.12-2.23-6.44-9.74-8-13.33-.93-1.08-1.75-2-2.55-3a20.4,20.4,0,0,1-2.1-3.08,3.45,3.45,0,0,1-.14-1.37,17.65,17.65,0,0,0,0-2.18l-.33-.58a15.87,15.87,0,0,1-2.75-2.86,6.32,6.32,0,0,0-1.9-.47c-1.11-.91-2.8-2.4-4.18-3.8l-.12-.62a3.24,3.24,0,0,0-.93-1.66c-.24-.71-.36-1.11-.51-1.47a6.78,6.78,0,0,0-1-1.45l-.56-.32-1.19-.08c-.3,0-.59,0-.84-.08-.88-.78-1.88-1.61-2.87-2.52a16.49,16.49,0,0,1-2.74-3.07c-.58-.88-.84-1.45-1.17-1.93a4.76,4.76,0,0,0-1.52-1.41,2,2,0,0,0-.6-1.27,3.73,3.73,0,0,0-1.07-.26c-11.71-10.05-22-19.19-31.51-29.27l-.47-.79-.32-.63a4.21,4.21,0,0,0-.44-.66,3.28,3.28,0,0,0-1.43-.91c-.42-.16-.89-.27-1.36-.41a2.26,2.26,0,0,1-1.71-1.31c-.07-.82-.09-1.2-.15-1.54l-.38-.58-.51-.49a2.85,2.85,0,0,0-.68-.55,5.17,5.17,0,0,0-.15-.62,1.45,1.45,0,0,0-.43-.58,16.27,16.27,0,0,0-2.11-.31,5,5,0,0,1-1.13-.26,3.09,3.09,0,0,0-.12-.59c-2.23-1.45-4.87-2.47-7.82-4a6.91,6.91,0,0,0-.71-1.47,2,2,0,0,0-1.63-1,1.72,1.72,0,0,0-1.36.6c-.79.1-5.45-2-8-3.25a14.52,14.52,0,0,0-1.66-.67l-1.85-.64a11,11,0,0,1-1.5-.68c-1.25-1-5.59-1-5.59-1a15.33,15.33,0,0,1-5.18-1.75,61.32,61.32,0,0,1-10.47-9.6,4.7,4.7,0,0,1-.56-2.92l0-.82-.81,0c-2.5-.11-9.12-5.85-8.54-8.9l.11-.64-.59-.26a3,3,0,0,0-.81-.2l-.7-.08a1.38,1.38,0,0,1-.85-.32,106.4,106.4,0,0,1-11.63-15.22,11.33,11.33,0,0,1-1.15-4.93,3.64,3.64,0,0,0-.57-1c-1-2.62-1.8-5.12-2.71-7.46a26.28,26.28,0,0,0-3.13-6.18v-12a2.4,2.4,0,0,0-1-.68v-18.1a1.56,1.56,0,0,0,.75-.43l.24-5.68a14.45,14.45,0,0,0,.67-1.58,1.35,1.35,0,0,0,.8-.6c.23-1.63.24-2.93.33-4.23a3.83,3.83,0,0,0,.62-1c.13-.33.24-.68.35-1a5.13,5.13,0,0,0,1-1.69l.61-.51c.23-.18.41-.31.6-.44l.4-.57a15,15,0,0,0,.12-1.59,2.47,2.47,0,0,0,2.16-2.62l.62-.68.5-.52c.41-.59.44-.76.45-.88l.1-.84c2.54-3.32,4.35-6.36,5.75-8.22a18.59,18.59,0,0,1,1.77-1.84l1-1c.28-.28.54-.55.78-.83.67-.07,1-.11,1.37-.16l.52-.32a3.71,3.71,0,0,1,.53-.56l.79-.7a7.79,7.79,0,0,0,1.64-1.78,3.67,3.67,0,0,0,.29-.6l.2-.6c.11-.31.21-.65.37-1a10.93,10.93,0,0,0,1.13-.74c.43-.32.88-.68,1.34-1.06a17.35,17.35,0,0,1,2.74-2c1.61-.85,3.43-1.73,5.27-2.69a43.52,43.52,0,0,0,5.48-3.33,2.2,2.2,0,0,1,.56-.28c.27-.09.58-.19.87-.26l1-.29a3.89,3.89,0,0,0,1-.42c.71-.43,2-1.27,3.43-2a9.64,9.64,0,0,1,3.51-1.27h29.52a6.4,6.4,0,0,1,1,.62,7.4,7.4,0,0,0,.92.63,3,3,0,0,0,1.22.36c5.88.38,12.89,2.76,17.72,7.08a38.35,38.35,0,0,0,6.59,4.62c2.24,1.28,4.53,2.39,6.81,3.54,4.52,2.28,8.83,4.65,12.46,8.74.59.32,1.11.58,1.41.71a2.37,2.37,0,0,1,.56.56l.8,1a4.84,4.84,0,0,0,2.28,1.63,1.46,1.46,0,0,0,.58.78,8,8,0,0,1,4.45,2.23c.69.6,1.34,1.23,2,1.8a14.81,14.81,0,0,0,1.6,1.37,4.15,4.15,0,0,0,.55.85l.73.74a4.37,4.37,0,0,1,.53.54l.37,1,.56.06a2.17,2.17,0,0,1,1.15.56c.17.16.36.35.55.56l.62.68a5,5,0,0,0,3.17,1.86v.79c1.48.72,2.51,1.15,3.49,1.6a17.22,17.22,0,0,1,2.38,1.28,3.69,3.69,0,0,0,.53,1l.57.78.64.41a6.09,6.09,0,0,1,1.61.42l1,.3.71.15a11.13,11.13,0,0,0,1,.94c.57.74.72,1,.92,1.3a2.94,2.94,0,0,0,1.79,1.26,4.89,4.89,0,0,0,1.32,1.66l.7.57a8.15,8.15,0,0,1,.6.59l.13,1.38.42.64.58.53a4.91,4.91,0,0,0,1,.79,11.66,11.66,0,0,0,1,2.06l.52.93a5.83,5.83,0,0,1,.35.85,1.61,1.61,0,0,0,.92.81c.86,1.78,2,4.21,4.56,4.65a11.15,11.15,0,0,0,.72,1.17,4.56,4.56,0,0,0,1.62,1.38,6.25,6.25,0,0,0,.85.3l.71.17a2.16,2.16,0,0,1,.95.37,7.13,7.13,0,0,1,1.74,2.79,1.76,1.76,0,0,0,1.16.78c.22,0,.32.24.38.52a6,6,0,0,1,.11.9l0,.54.5.17a2.21,2.21,0,0,1,.8.52l.54.45c.72,1.24,1.46,2.39,2.21,3.44.9,1.24,2,2.51,2.74,3.49a2.14,2.14,0,0,1,.32.64l.38,1.09a5,5,0,0,0,.59,1.18,2.29,2.29,0,0,0,.71.67,6.06,6.06,0,0,0,.82,1.65c.44.64,1,1.33,1.51,2,1.06,1.44,1.78,2.72,1.59,4l-.11.71.68.21a3.76,3.76,0,0,1,2.45,2.36c.3.64.56,1.36.86,2.12a21.12,21.12,0,0,0,1.16,2.5c.39.72.86,1.44,1.31,2.14a12.82,12.82,0,0,1,1.07,1.9,19.66,19.66,0,0,0,1.86,3.47c.67,1.08,1.37,2.1,1.8,3,7.28,14.87,17,29.17,24.11,43.53a2.38,2.38,0,0,0,.48.64l.5.44a3.69,3.69,0,0,1,.88,1c1.61,2.92,3.23,5.54,4.7,8.18a47.24,47.24,0,0,1,3.71,8.19,1.7,1.7,0,0,0,.91.79,17.56,17.56,0,0,0,.95,2.12l.52,1a7.69,7.69,0,0,1,.37.92c2.14,1.87,5.69,7.62,5.84,11.07.41.79.7.93.94,1a6.44,6.44,0,0,0,.37,1.68,8.3,8.3,0,0,1,.39,1.88c.31.61.43.72.55.8C820,272.62,821,275,822,277.28a81.09,81.09,0,0,1,4,12.74,12.17,12.17,0,0,1,3.1,8.2l.17.59a1.45,1.45,0,0,0,.79.53,8,8,0,0,0,1.26,2.58c.27.4.52.8.77,1.23a8.69,8.69,0,0,1,.62,1.37c3.73,11,6.52,22.74,9.28,34a4.54,4.54,0,0,1,.07.86l0,1a6.32,6.32,0,0,0,.18,2.37c.13.46.37,1,.59,1.63a5.21,5.21,0,0,1,.33,1.34l-.59.4-.52.24.06.58a1.25,1.25,0,0,0,.83,1,89.84,89.84,0,0,0,2.65,11.56l1.67,5.76a21,21,0,0,1,.72,3v8a1.81,1.81,0,0,0,.57,1.36.71.71,0,0,1-.09.77l-.3.55a2.11,2.11,0,0,0-.18.87,1.7,1.7,0,0,0,.62,1.38,60.85,60.85,0,0,1-.28,9.15,1.75,1.75,0,0,0,.75,1.51,3,3,0,0,0,.55.29l0,28.18a1.69,1.69,0,0,0-1,1.61c0,1.22.4,1.65.94,2l.1.51a1,1,0,0,1-.1.53,1.87,1.87,0,0,1-.62.63l-.35,8.25.75.08a.61.61,0,0,1,.31.58l0,.82a6.58,6.58,0,0,1,0,1.12,1.5,1.5,0,0,0-.76.54c-.23,1.55-.24,2.68-.32,3.78a1.47,1.47,0,0,0-.64,1.26v7.79a1.57,1.57,0,0,0-.77.43l-.23.74c0,.21,1.7,9.08,1.74,10.86a2.94,2.94,0,0,0-.81,1.21,9.22,9.22,0,0,0-.41,1.89l-.21,1.84a5.75,5.75,0,0,1-.23,1.13,14.41,14.41,0,0,1-.93,1.55c-.4.62-.84,1.28-1.25,2a9,9,0,0,0-1.37,4.64,15.19,15.19,0,0,0-1.26,1.17,3.21,3.21,0,0,0-1,2v8.33a26.34,26.34,0,0,1-.35,4.88c-.23,1.52-.58,3.55-1,8.09a43.32,43.32,0,0,1-1.69,7.85c-.74,2.54-1.54,5.09-2.14,7.74a1.55,1.55,0,0,0-.75.55c-.58,4.55-1.32,8.49-2.08,12.59a6.93,6.93,0,0,1-.8,1.71l-.57,1a5.87,5.87,0,0,0-.48,1.06,7.49,7.49,0,0,0-.21,2c0,.47,0,1,0,1.47a1.42,1.42,0,0,0-.67.5,13.91,13.91,0,0,1-1,3.2c-1.94,4.16-2.22,9-2.33,13.14a1.46,1.46,0,0,0-.63.46l-.15.74-1.68.89c-.6.33-1.24.62-1.77.91-.3.16-.56.32-.77.46a2.64,2.64,0,0,0-.63.58,15.21,15.21,0,0,0-.29,2.34,1.43,1.43,0,0,0-.65,1.27v7.43a1.36,1.36,0,0,0-.77.53l-.25,1.63c0,.22,0,.43,0,.64a1.68,1.68,0,0,0-.77.55,4.85,4.85,0,0,0-.24,1.85c0,.44.05.92.05,1.36,0,.88-.2,1-.46,1.08l-.63.16V582l-.57.64a12.68,12.68,0,0,0-1.41,0,2,2,0,0,0-1.74,1.42h-8.8l-.21.51a3.49,3.49,0,0,0-.31,1.21l-1.07.48-.53.05-.17.52a3.92,3.92,0,0,1-.22.51l-.33.58a5.39,5.39,0,0,0-.53,1.2,3.68,3.68,0,0,0-1.73,2,1.74,1.74,0,0,0-.51.13,1.49,1.49,0,0,0-.56.44c-.24.88-.37,1.34-.52,1.81s-.36,1-.55,1.49a19.94,19.94,0,0,0-1,3.61,2.8,2.8,0,0,0-.74.91,6.62,6.62,0,0,0-.32.71l-.26.68a9.19,9.19,0,0,1-.48,1.1c-.42,1.82-.29,2-.14,2.33s.27.68.42,1a3.73,3.73,0,0,0,1.82,2l2.55,5.1a28.13,28.13,0,0,0-1.82,4c-.51,1.34-1,2.66-1.51,4a4.16,4.16,0,0,0-.94,1.76,3.13,3.13,0,0,0-1.44,1.28c-.14.09-.41.23-.62.38a3.56,3.56,0,0,0-1.11,1.42c-1.2.81-2.44,1.76-3.55,2.64-1,.2-1.9.4-2.73.65a5,5,0,0,0-2.17,1.14,6.38,6.38,0,0,0-2.59,1.58l-.24.53c-.07.9-.07,2.18-.19,3.11-.44.58-1,1.28-1.52,2a9.62,9.62,0,0,0-.75,1.14,2.78,2.78,0,0,0-.38,1.2v9.46a3.14,3.14,0,0,0-1.13,2c-.48.45-1.2,1.11-1.87,1.83a9.13,9.13,0,0,0-1.61,2.17H769.1a2.64,2.64,0,0,0-.85.65l-.44.53a1.59,1.59,0,0,1-.66.58l-.54.65c0,.22,0,.75-.14,1.27a5.24,5.24,0,0,0-2.1,3.41,1.65,1.65,0,0,0-.67.52l-.25.62a4,4,0,0,0-.68,2v5a22.28,22.28,0,0,1-3.69,2.82l-.38.62a4.26,4.26,0,0,1-.75,1.93l-.69.41a3.14,3.14,0,0,0-1.69,2.38l-.59.11c-.46.06-.92.11-1.32.2a1.92,1.92,0,0,0-1.65,1.65c-1,0-1.94.05-2.7.11-.71.38-.84.61-.92.81l-.62-.1a3.5,3.5,0,0,0-.64,0,1.63,1.63,0,0,0-1.7,1.81c-1.65.53-2.62,1.67-2.62,2.81l.05.9a1.26,1.26,0,0,0,.58.81l.58.28.5.29v3.66a6.5,6.5,0,0,1-1,1.05c-.45.39-.92.73-1.36,1l-.32.5-.1.72c-.28,0-.77.78-1,1.28a12.76,12.76,0,0,0-.71,1.75,26.73,26.73,0,0,0-4.59,4.66c-1.67.1-4.4.71-5.68,1.85l-1.2.09-.54,0-.17.51a1.29,1.29,0,0,1-.73.41l-.73.11-.56.42-.53.58a5.83,5.83,0,0,0-.78.95l-.56.1a3.2,3.2,0,0,0-1.15.39,3.1,3.1,0,0,0-.75,1.58l-.07.55a4.66,4.66,0,0,0-1.12.58,5.33,5.33,0,0,1-.55.33l-1,.14-.15.6a4.74,4.74,0,0,1-.76,1.51l-1.1,1.52a1.62,1.62,0,0,0-1.43.89,2.7,2.7,0,0,0-.19.8,1.5,1.5,0,0,1-.65,1l-.52.36L714,718a3,3,0,0,0-1.08,2.3c-.82,0-1.56,0-2.3.1-.78.43-.91.74-1,1l-1.07.09-.63.41c-1.26,2.19-2.88,4.52-4.56,6.89-.71,0-1.57,0-2.41.09-.76.42-.89.73-1,.94a4.61,4.61,0,0,0-1.74.72,19.52,19.52,0,0,0-1.65,1.11l-.34.8c.29,2.05-2.13,5.72-3.6,7.16a4.21,4.21,0,0,0-1,1.62,6.83,6.83,0,0,0-2.21,2l-.79,1.08a5.22,5.22,0,0,1-.52.6,6.48,6.48,0,0,0-4.46,2,19.93,19.93,0,0,0-1.75,1.92c-.46.57-.93,1.15-1.41,1.72a16.91,16.91,0,0,0-2.16.47,9.91,9.91,0,0,1-2.14.4h-.49c-.74,1.47-1.06,1.76-2.21,1.73h-.63l-.17.61a3.83,3.83,0,0,1-2,2.22c-.52.31-1.05.59-1.57.91a7.28,7.28,0,0,0-1.44,1.09,4,4,0,0,0-.83.47,7.88,7.88,0,0,1-.71.52,1.93,1.93,0,0,0-.77.21,2.54,2.54,0,0,0-1.28,1.37,4.69,4.69,0,0,0-1.31,1.29,2.33,2.33,0,0,0-1.41,1.07,7.34,7.34,0,0,0-2.1,1.14c-.46.36-.85.78-1.5,1.27a14.3,14.3,0,0,0-3,1.4,4.72,4.72,0,0,0-2.13,2.67,8.77,8.77,0,0,0-.78.52,3.36,3.36,0,0,0-1.09,1.45,5.6,5.6,0,0,0-.86.06l-.55.07-.13.54a3.29,3.29,0,0,1-1.32.72c-.47.17-1,.33-1.43.54a4.05,4.05,0,0,0-1.2.83c-.54.18-1.19.36-1.81.61a6.56,6.56,0,0,0-1.92,1.11l-.83.08-1.5.09a10.42,10.42,0,0,0-3,2.26c-.8.81-1.6,1.74-2.44,2.65-.7.73-3,1.56-4.92,1.75l-.57.31c-.48.63-1,1.29-1.51,1.92a11.49,11.49,0,0,1-1.41,1.45l-.78,0a13.61,13.61,0,0,0-1.63.12,3.1,3.1,0,0,0-2.68,1.64l-.57.06-1.16.09-.65.43-.45.53-.67.1-.58.42A3.86,3.86,0,0,1,615.1,791a5.7,5.7,0,0,1-1.29.5c-.54.15-1.09.3-1.6.49a3.46,3.46,0,0,0-2.36,2.2,5.93,5.93,0,0,0-2.54.61c-.42,0-.69,0-1,.09a3.27,3.27,0,0,0-1.92,1,35.3,35.3,0,0,0-3.68,1.16,18.7,18.7,0,0,0-2,.86,5.72,5.72,0,0,0-.75.48,23.78,23.78,0,0,1-2.6.81,3.94,3.94,0,0,0-2.25,1.58c-.65,0-1,.06-1.4.12a1.85,1.85,0,0,0-1.64,1.31l-1.85.11-.57,0-.17.53-.61.43-.77.47a3,3,0,0,0-.5.46,41.35,41.35,0,0,0-5.11.9l-.52.41-.58.84a3.27,3.27,0,0,0-.36.7,5.88,5.88,0,0,0-2.81.49,7.34,7.34,0,0,0-1.23.78l-1,.83a9.25,9.25,0,0,1-1.13.13c-.53,0-1.07.07-1.6.13a4.63,4.63,0,0,0-2.84,1.13l-.8.08-1.48.1c-.77.42-.9.73-1,.94-.07-.06-.32,0-.58,0l-1.16.08-.68.47a5.34,5.34,0,0,1-1.4.74,13.38,13.38,0,0,1-2.44.57l-.5.24a6.66,6.66,0,0,0-.89,1A3.88,3.88,0,0,0,557,816l-.63.11c-.47.07-.93.11-1.33.2a2,2,0,0,0-1.64,1.52,3,3,0,0,0-1.63.56,4.6,4.6,0,0,0-.81.77l-.81.45a11.18,11.18,0,0,0-1.33-.11,2.46,2.46,0,0,0-2.41,1.28H540a1.33,1.33,0,0,0-.86.38,2.18,2.18,0,0,0-.46.61,9.29,9.29,0,0,0-.63,1.45l-.51,1.51-.23.63c-.71.1-1.44.28-2.21.45a13.79,13.79,0,0,1-2.68.42c-.9.52-1,1-1,1.28-1.41,0-2.85-.1-4.12,0a4.84,4.84,0,0,0-4,1.75l-.75.08-1.48.09c-.77.43-.9.73-1,.94-.84.07-2.17.17-3.44.37a12.19,12.19,0,0,0-3.65,1h-7.43a4,4,0,0,1-.83,1,5.23,5.23,0,0,1-.68.48,6,6,0,0,0-1.55,1.34h-10a1.91,1.91,0,0,0-.76.12.82.82,0,0,0-.47.52c-.86.07-1.85.09-2.59.14l-.54.25a7.43,7.43,0,0,0-.89,1,4.19,4.19,0,0,0-.44.9l-10.45-2.83c-.74,1-.95,1.12-1.16,1.2s-.38.15-.61.27a5.49,5.49,0,0,0-.62.41h-6.37c-.27-.3-.55-.64-.84-.92a3.24,3.24,0,0,0-1.24-.84l-.43-.8a4.55,4.55,0,0,1-.53-1l-.17-.52-.54,0-.58-.29a3,3,0,0,0-1.5-.46h-24a2.22,2.22,0,0,0-1.43.54c-1,.6-1.2.87-1.28,1.16h-4.64a1.7,1.7,0,0,0-.43-.75l-4.65-.26a1.53,1.53,0,0,0-1.47,1.1,18.83,18.83,0,0,0-.66,4,20.41,20.41,0,0,0-2.35,2.6h-5.14a9,9,0,0,1-1.54-1.38,4.94,4.94,0,0,0-1.73-.44,4.1,4.1,0,0,0-.78-.78l-.5-.39-.36-.68a4.31,4.31,0,0,0-.31-1.13l-.21-.49h-2.65l-.2.54c-.56,1.52-1.19,3.12-1.84,4.77L404.1,840a2.53,2.53,0,0,0-2.15.79H390.23a1.06,1.06,0,0,0-1.14-.7H376.62l-.52-.58c-.77-.1-1.57-.1-2.41-.2a2,2,0,0,0-.4-.72l-15.41-3.08a1.71,1.71,0,0,0-.45-.86l-9.21-.26a1,1,0,0,0-1.13-.69h-3.87l-.53-.61c-1.48-.09-2.74-.1-4-.21a3.86,3.86,0,0,0-2.35-1,7.46,7.46,0,0,0-1.15,0c0-.81-.22-1.27-.69-1.5a1.89,1.89,0,0,0-.95-.11l-.59.09a3.23,3.23,0,0,0-.45-.57l-.45-.51-.7-.44a20.8,20.8,0,0,1-2.71-.39l-1.33-.25a6.51,6.51,0,0,0-1.07-.12,4.24,4.24,0,0,0-.9.13l-.76.26-.65.22a3.7,3.7,0,0,1-1.23,0l-1.31-.25c-.82-.17-1.69-.34-2.46-.46a1.5,1.5,0,0,0-.52-.7,13,13,0,0,0-1.63-.31,1.34,1.34,0,0,1-.94-.62L297.78,826l-.53-.6c-1.47-.08-2.73-.09-4-.21l-.69-.62a1.7,1.7,0,0,1-.48-.54l-.57-.4a4.17,4.17,0,0,0-.79-.08l-.29-1.43H284a104.6,104.6,0,0,1-17.29-6.7,12.92,12.92,0,0,1-2.74-2.27c-.49-.48-1-1-1.51-1.39a10.28,10.28,0,0,0-1.24-.93v-7.23a3.6,3.6,0,0,0-1.81-1.24c-.36-.11-.75-.16-1.16-.27l-.72-.7a1.72,1.72,0,0,1-.47-.5l-.68-.44c-.86-.06-2.06-.06-3-.17a3.65,3.65,0,0,0-1.82-.95c-.29-.06-.56-.07-.79-.1a3.82,3.82,0,0,0-2-1.11c-.28-.06-.56-.09-.87-.13-.49-.28-.52-.46-.59-.63a1.52,1.52,0,0,0-.42-.58c-1.2-.25-2.3-.28-3.25-.5s-1.28-.55-1.33-.86l-.1-.69h-3v3l-.75.37c-.42.23-.87.51-1.28.75s-.76.46-1.09.63c-1.34.18-1.68-.16-5.07-.17l-.67-.12c-35.17-15.44-93.55-69.2-111.67-87.52C44.83,637.13,14.56,537.81,6.32,441.34,3.14,421.6,5,398,8.64,374.32s9.12-47,13.24-66.62c3-2.72,8.31-8.26,9.64-12.52l-4.78-8a126,126,0,0,1,6.34-19.56c2.69-6.79,5.68-13.51,8.1-19.43L50,242.28a60.08,60.08,0,0,1,7.8-20.11C66.22,218.69,72,211.43,77,203.62c2.54-3.93,4.92-8,7.39-12a72.36,72.36,0,0,1,7.83-10.58,9.48,9.48,0,0,0,1-2.45,3.57,3.57,0,0,0,.67-1,8.49,8.49,0,0,0,.31-.89,2.68,2.68,0,0,0,1.32-1.47,5.12,5.12,0,0,0,.28-.8A4.08,4.08,0,0,0,97.05,172a8,8,0,0,0,1.12-.48,5.49,5.49,0,0,0,1.63-1.28,10.35,10.35,0,0,0,.37-2.18,20,20,0,0,0,2.81-4.6c.46-.9.91-1.81,1.36-2.62a11,11,0,0,1,1.29-1.91,9.59,9.59,0,0,0,.39-2.18,5.76,5.76,0,0,1,2-1.13,23.9,23.9,0,0,1,2.91-.82c1.93-.47,4.2-1,5.45-2.75a9.14,9.14,0,0,0,2.32-3,25.07,25.07,0,0,0,1.18-3.19,4.54,4.54,0,0,0,.82-.48l.78-.59a2.11,2.11,0,0,0,.46-.88l.08-1a5.63,5.63,0,0,0,.7-.67l.75-.89a3.75,3.75,0,0,1,1.49-1.2,33.83,33.83,0,0,0,4-6.38,2.33,2.33,0,0,0,1.81-.72A6.71,6.71,0,0,0,132,130.8c.33-.78.61-1.63.94-2.36a4.1,4.1,0,0,1,.72-1.2,3.07,3.07,0,0,0,1.36-.64,7,7,0,0,0,.55-.52l.47-.5a1.87,1.87,0,0,0,.45-.8,5.25,5.25,0,0,0,.16-.68,2,2,0,0,1,.34-.94,9.57,9.57,0,0,1,1.28-1.25c.5-.43,1-.82,1.46-1.15a2.83,2.83,0,0,0,.41-1.3l0-.56c2.78-1.3,5.66-3.28,7.62-4.17a2.81,2.81,0,0,0,.72-1.22l.19-.79a1.54,1.54,0,0,1,.67-1,9.06,9.06,0,0,1,2.15-.85,2,2,0,0,0,1.3-1.15l.24-.55c.9-1,1.63-1.75,2.4-2.46a7.62,7.62,0,0,1,1.93-1.46,22.17,22.17,0,0,1,3.48-3.06c.64-.47,1.27-.94,1.84-1.38a13,13,0,0,0,1.52-1.37,49.91,49.91,0,0,1,5.38-4.94c2.22-1.84,4.68-3.74,6.94-5.51a5.83,5.83,0,0,0,1-1c.28-.33.52-.7.78-1.07a5.74,5.74,0,0,1,1.37-1.53,9.86,9.86,0,0,0,1.28-1l1.25-1.19a11.74,11.74,0,0,1,2.5-2c1.56-.8,3.47-1.51,4.86-2.35a1.65,1.65,0,0,0,.66-1.09l.78-.54a3,3,0,0,1,1-.37,2.77,2.77,0,0,1,1.83-.56,18.76,18.76,0,0,0,3,0l.6-.4c1-1.64,2.51-3.34,4.38-3.12l.56.06.26-.49c1.4-2.64,9.57-7,12.3-8a1.6,1.6,0,0,0,.79-1.16c3.33-2.43,6.55-4.72,10-6.76a7.37,7.37,0,0,1,2.45-.82,2.19,2.19,0,0,0,1-.94,5.85,5.85,0,0,1,1.53-1l1.72-.91c.54-.28,1.07-.54,1.54-.73a2.8,2.8,0,0,1,1-.27c.81-.37,1-.68,1-1,2.48-1.58,5.24-3.37,8.07-4.86a24.32,24.32,0,0,1,8.54-3,1.77,1.77,0,0,0,1.27-.65l.51-.6c.59-.06,1-.08,1.36-.14a1.59,1.59,0,0,0,.92-1.24c.58-.24.87-.34,1.17-.44a6.78,6.78,0,0,1,1.59-.41l.66-.44c1.05-2,4.51-3.4,7.1-4.16a1.6,1.6,0,0,0,.84-1.18A33.55,33.55,0,0,1,277.37,31l.65-.42a3.49,3.49,0,0,1,.42-.61l.49-.64A34.73,34.73,0,0,1,283.74,28c1.72-.36,3.45-.63,5.19-.92a45.74,45.74,0,0,0,10.74-2.74,10.68,10.68,0,0,0,1-.5l1-.6a19.89,19.89,0,0,1,2.15-1.14c4.93-2.09,10.47-4.15,16.05-5.94a5,5,0,0,1,1.44-.14,15.4,15.4,0,0,0,1.84-.05c.67-.34.83-.6.92-.84,1-.09,2-.26,3-.42a18.38,18.38,0,0,1,3.5-.31h.83V13.33H339v3.16a3.94,3.94,0,0,0-.64.51,1.42,1.42,0,0,0-.35.57c-1.92.11-3.74.39-5.53.46-.7.36-.83.58-.89.75l-.2.77a5.15,5.15,0,0,0-2.58,0,4.15,4.15,0,0,0-2.55,1.57h-6.15a16.7,16.7,0,0,1-2.25,2c-.74.54-1.47,1-2.13,1.58a2.62,2.62,0,0,1-1.52.68h-4.78a2.26,2.26,0,0,0-.68,1.34,7.7,7.7,0,0,0-1.39,1l-.51.49L305,29l1.34.88a1.52,1.52,0,0,0,.65.24l.81.06,3.1,0a1.81,1.81,0,0,0,.35.65,1.07,1.07,0,0,0,.71.38l.59.06.25-.54a3.49,3.49,0,0,0,.29-1.22l.05-.65A30.52,30.52,0,0,1,320.08,27a8.16,8.16,0,0,1,1.24.05,5,5,0,0,0,.53.59,1.86,1.86,0,0,0,.62.37v3.48a2.68,2.68,0,0,0-1.05.86h-8.23a6.81,6.81,0,0,1-.78,1,2.66,2.66,0,0,0-.9,2.13,1.8,1.8,0,0,0,0,.8,2.37,2.37,0,0,0,1,1.32v4a1.62,1.62,0,0,0-.87.86h-5.21a2.62,2.62,0,0,0-.65-.75l-.53-.49-6.82-.48a1.91,1.91,0,0,0-.75.14l-.91-.72a4.43,4.43,0,0,0-1.34-.92,1.55,1.55,0,0,0-1.61.27c-.71,0-1.08,0-1.46,0a3.53,3.53,0,0,0-2.35,1,7,7,0,0,0-1,.25c-.38.13-.72.29-1.08.44a5.05,5.05,0,0,1-1.86.53h-.58l-.17.55a3.75,3.75,0,0,1-.21.5l-.34.58a6.35,6.35,0,0,0-.5,1.13,1.52,1.52,0,0,0-.74.54l-.27,1.63-.07.8a7.36,7.36,0,0,0-2,2.69,2.84,2.84,0,0,0-1,1,3,3,0,0,0-.7.42c-.2.13-.41.3-.74.51a6.77,6.77,0,0,0-.87.19l-.91.3a5.37,5.37,0,0,1-1.59.38l-.7.44-.46.51a3,3,0,0,0-.57.75,4.16,4.16,0,0,0-.71.42c-.2.14-.41.31-.77.54a6.83,6.83,0,0,0-.66.28,4.86,4.86,0,0,0-1.05.68,3.37,3.37,0,0,0-2.52,1,8.44,8.44,0,0,0-.92,1.09c-.2.31-.39.63-.59,1a12.63,12.63,0,0,0-1.26,1c-.42.36-.8.73-1.18,1.09a9.12,9.12,0,0,1-2.09,1.64c-.3.05-.62.12-.94.2l-1.06.29a8.76,8.76,0,0,1-2.09.39l-.7.44-.46.52-.66.1-.59.43a2.16,2.16,0,0,1-.47.54l-.74.64-1.24.14-.63.39a10.23,10.23,0,0,1-1.72,2c-.35.35-.69.69-1,1.06a8,8,0,0,0-1,1.26l-.37.6.54.46a1.55,1.55,0,0,0,.93.38c.22,0,.51,0,1,0a7.93,7.93,0,0,0,1.56-.21,13.17,13.17,0,0,1,1.42-.26,1.56,1.56,0,0,0,1-1.21A4.19,4.19,0,0,1,256.2,70l1.07-.67c.29-.19.57-.4.84-.61a7.3,7.3,0,0,0,.87-.16l1.08-.28a10,10,0,0,1,2.12-.43l.54,0,.18-.52a2.82,2.82,0,0,1,.71-.93l.63-.65.46-.48c2.28-.16,4.56-.8,6.82-.92.9-.46,1-1,1-1.25l.58-.18a2.09,2.09,0,0,0,.95-.45l.72-.52,1-.32a6.59,6.59,0,0,1,1.63-.43l.62-.38a7.5,7.5,0,0,1,.77-1l1-1a14.14,14.14,0,0,0,1.9-2.32c1.58-.2,3.18-.79,5-.9.88-.46,1-1,1-1.24.17,0,.34-.11.5-.14.38-.08.76-.18,1.15-.29l1.09-.27a9.21,9.21,0,0,1,1.09-.16c.71-.34.87-.61.95-.85l1.09-.07a12.78,12.78,0,0,0,1.59-.2A4.52,4.52,0,0,0,297.46,51l4.09,2.63a3.25,3.25,0,0,0,1.75-.5l.69-.35c.61-.33.78-.59.86-.86a5,5,0,0,0,.74-.07,3.11,3.11,0,0,0,1.86-1,6.42,6.42,0,0,0,1.27.07,2.35,2.35,0,0,0,1.31-.41,1.38,1.38,0,0,0,.49-.73l.87-.17a6,6,0,0,0,1.4-.52c.61.06,1,.13,1.34.14a2,2,0,0,0,2.11-1.2A3.08,3.08,0,0,0,318.13,47,2.88,2.88,0,0,0,319.76,46h5.8a2.06,2.06,0,0,0,.73-.12.92.92,0,0,0,.52-.62c1.81-.12,3.57-.69,5.32-.81.65-.29.79-.53.87-.7a2.32,2.32,0,0,0,.13-.5,4.25,4.25,0,0,0,.62-.12,2.17,2.17,0,0,0,1.11-.63H340a2.26,2.26,0,0,0,.66-1h4.86a2.09,2.09,0,0,0,.74-.16Zm182,63.58c.46,0,1.32.12,1.28.6-.46.06-1.32-.12-1.28-.6ZM297.68,32.12c.35,0,.43.68-.43,1-.08-.5.09-1,.43-1Zm2.54-1c0,.47-.12,1-.59.95-.06-.48.12-1,.59-.95ZM548.6,101.75H555a2.24,2.24,0,0,0,1.39,1.79v5.84h-6.08c-.75-1.18-.65-1-1.75-1.06v-6.57Z" transform="translate(-4.68 -3.38)"/></svg>