<svg id="Livello_1" data-name="Livello 1" xmlns="http://www.w3.org/2000/svg" viewBox="0 0 780.96 341.12"><defs><style>.cls-1{fill:#00b97f;}.cls-2{fill:#006369;}</style></defs><title>Bperbanca</title><path id="Fill-1" class="cls-1" d="M448,399.61a14.72,14.72,0,0,1-11.33,5.15c-4.12,0-7.21-2.06-7.21-6.18,0-7.21,6.18-10.3,16.48-10.3H448v11.33Zm16.49-2.06V375.92c0-15.46-8.25-21.64-23.7-21.64A39.15,39.15,0,0,0,416,362.52l7.21,10.3a21.39,21.39,0,0,1,15.46-5.15c7.21,0,9.27,3.09,9.27,8.25V379H445.9c-15.45,0-31.94,5.15-31.94,21.63a16.82,16.82,0,0,0,17.09,16.57,14.28,14.28,0,0,0,1.46-.08A19.79,19.79,0,0,0,449,408.88c0,2.07,0,5.16,1,6.19h16.49a38,38,0,0,1-2.06-17.52Zm-75.22,7.21c-10.3,0-15.45-8.24-15.45-19.57s5.15-18.55,14.42-18.55a30.53,30.53,0,0,1,12.37,3.09l5.15-11.33a30.39,30.39,0,0,0-18.55-5.15,29.75,29.75,0,0,0-31.94,27.38,31.55,31.55,0,0,0,0,4.56A28.69,28.69,0,0,0,381.5,416.1a30,30,0,0,0,4.64,0A31.83,31.83,0,0,0,405.72,411l-5.15-11.34A13,13,0,0,1,389.23,404.76Zm-62.84-50.48a27.3,27.3,0,0,0-19.58,9.27v-7.21H290.33V416.1h16.48V374.89a16.92,16.92,0,0,1,12.36-7.22c6.19,0,8.25,3.09,8.25,9.28v38.12H343.9V372.82c1-10.3-4.12-18.54-17.51-18.54Zm-67,45.33a14.75,14.75,0,0,1-11.34,5.15c-4.12,0-7.21-2.06-7.21-6.18,0-7.21,6.18-10.3,16.49-10.3h2.06v11.33Zm16.48-23.69c0-15.46-8.24-21.64-23.69-21.64a39.13,39.13,0,0,0-24.73,8.24l7.21,10.3a21.37,21.37,0,0,1,15.46-5.15c7.21,0,9.27,3.09,9.27,8.25V379h-2.06c-15.46,0-31.94,5.15-31.94,21.63a16.82,16.82,0,0,0,17.08,16.57,14.13,14.13,0,0,0,1.46-.08,19.83,19.83,0,0,0,16.49-8.24c0,2.06,0,5.15,1,6.18H278a67.62,67.62,0,0,1-2.06-17.52V375.92ZM183.18,402.7H173.9V380h10.31c10.3,0,14.42,4.12,14.42,11.33,0,8.24-5.15,11.33-15.45,11.33Zm-9.28-55.63h8.25c8.24,0,13.39,3.09,13.39,10.3s-4.12,10.3-13.39,10.3H173.9Zm24.73,25.75h0a17.84,17.84,0,0,0,14.42-18.54c0-15.45-13.39-20.61-27.81-20.61H157.42v81.4h26.79c18.54,0,31.94-6.18,31.94-22.67a20,20,0,0,0-17.52-19.58Z" transform="translate(-157.42 -76.1)"/><path id="Fill-2" class="cls-2" d="M777.66,163.68H741.6V114.22h37.09c16.48,0,21.63,6.18,21.63,21.64,0,16.48-6.18,27.82-22.66,27.82Zm69-27.82c0-40.18-21.64-59.76-65.94-59.76H697.29V270.83H741.6V199.74h33l36.07,71.09h51.51l-47.39-79.34a64,64,0,0,0,31.94-55.63ZM423.23,76.1H343.9V270.83h45.33V114.22h35c16.49,0,22.67,6.18,22.67,24.73,0,20.6-14.42,33-39.15,33h-9.27l7.21,35H414c49.46,0,78.3-27.82,78.3-65.94C494.32,98.77,476.81,76.1,423.23,76.1ZM890,193.55c-8.24,8.25-8.24,34,0,42.25s33,8.24,41.21,0,8.24-34,0-42.25C924,185.31,898.2,185.31,890,193.55Zm42.24-37.09c8.24-8.24,8.24-34,0-42.24s-33-8.24-41.21,0-8.24,34,0,42.24C898.2,164.71,924,164.71,932.2,156.46ZM240.87,231.67H201.72v-44.3h41.21c15.46,0,22.67,6.18,22.67,20.61,0,17.51-9.27,23.69-24.73,23.69ZM201.72,114.22h39.15c15.46,0,19.58,4.12,19.58,19.58,0,13.39-7.21,20.6-19.58,20.6H201.72ZM280,167.8h0c14.43-6.19,24.73-23.7,24.73-42.25,0-28.84-16.48-49.45-57.7-49.45H157.42V270.83h91.69c40.19,0,63.88-20.61,63.88-56.67,0-24.73-11.33-41.21-33-46.36Zm286.43,21.63h75.21V152.34H566.45V115.25h89.63V76.1H522.14V270.83H660.2V230.64H566.45V189.43Z" transform="translate(-157.42 -76.1)"/></svg>