<svg id="Layer_1" data-name="Layer 1" xmlns="http://www.w3.org/2000/svg" viewBox="0 0 2070.2 840.81"><defs><style>.cls-1{fill:#231f20;}.cls-2{fill:#e8222d;}</style></defs><title>Brico-center</title><path class="cls-1" d="M1364.86,261.26h73.21v25.32h-40.36v26.68h40.36v25.32h-40.36v26.86h40.36V392h-73.21Z" transform="translate(-5.82 -0.09)"/><path class="cls-1" d="M1456,261.26h34l42.08,65.86a158.19,158.19,0,0,1,11.63,21.9,123.62,123.62,0,0,1-3.08-27V261.26h32.35V392h-32.36l-44.64-66.71a159.69,159.69,0,0,1-11.12-20.7,78.84,78.84,0,0,1,3.59,24.11v63.29H1456Z" transform="translate(-5.82 -0.09)"/><path class="cls-1" d="M1612,287.78h-29.59V261.26h91.86v26.52h-29.43V392H1612Z" transform="translate(-5.82 -0.09)"/><path class="cls-1" d="M1683.87,261.26h73.21v25.32h-40.37v26.68h40.37v25.32h-40.37v26.86h40.37V392h-73.21Z" transform="translate(-5.82 -0.09)"/><path class="cls-1" d="M1768.19,261.26h47.9c30.28,0,47.72,17.11,47.72,41.91,0,20.19-11.12,33.53-28.91,35.23l34.21,53.54H1829.6L1801,336.34v55.6h-32.84ZM1801,286.75v36.09h9.75c12.66,0,19.66-6.67,19.66-18.3,0-12.14-6.67-17.79-20.53-17.79Z" transform="translate(-5.82 -0.09)"/><path class="cls-1" d="M1348.88,387.37a71,71,0,1,1-1-122.95l.41,37.38a43,43,0,1,0,.24,48.44Z" transform="translate(-5.82 -0.09)"/><rect class="cls-1" y="672.88" width="2070.2" height="167.93"/><path class="cls-2" d="M5.82,16H227.51c112.83,0,181.17,64.36,181.17,162.89,0,59.59-27.81,105.67-80.25,131.11,59.59,18.27,93.76,65.94,93.76,135.08,0,115.21-70.72,178-205.8,178H5.82ZM183,267.89c52.42,0,80.25-25.42,80.25-72.31,0-54.82-29.4-72.31-93-72.31H146.48V267.89Zm12.69,240.76c47.68,0,76.28-30.19,76.28-76.28,0-49.26-31-75.49-89-75.49H146.48V508.65ZM880.66,16h128.73V623.06H880.66Zm-225.89-.41C692.14,15.59,835,38.12,835,195.81S703.92,374,703.92,374L890.28,623.06H730.54L566.71,394.46v228.6h-129V16ZM562.61,124.13V285.92H622s75.77,0,77.82-80.9-84-80.89-84-80.89Zm893.78,286.92c39,131.81,160,227.9,303.23,227.9,174.74,0,316.4-143,316.4-319.42S1934.36.09,1759.62.09C1613.13.09,1489.9,100.58,1453.87,237l136,.63C1619.67,172.27,1684,127,1758.59,127,1861.52,127,1945,213.21,1945,319.53S1861.52,512,1758.59,512a185.6,185.6,0,0,1-164.15-101.29Zm31.18,16.23c-58.25,86.35-175.47,109.12-261.81,50.87s-109.12-175.47-50.87-261.81,175.47-109.12,261.81-50.87a188.85,188.85,0,0,1,49.86,49.38l-1.83-163.94c-149.62-84.74-339.61-32.15-424.35,117.48S1028.24,508,1177.86,592.74a311.36,311.36,0,0,0,311.42-2.63Z" transform="translate(-5.82 -0.09)"/></svg>