<svg id="Layer_1" data-name="Layer 1" xmlns="http://www.w3.org/2000/svg" viewBox="0 0 4002.93 837.21"><defs><style>.cls-1{fill:#bf1920;}</style></defs><title>Canon</title><g id="g3"><g id="g5"><g id="g7"><g id="g9"><path id="path11" class="cls-1" d="M659.25,759.31c-186.11,0-336.94-150.91-336.94-337.06S473.14,85.33,659.25,85.33a335.24,335.24,0,0,1,178.58,51.13L659.25,422.25l336.2-194.12c-36.53-58.2-88.92-108.35-152.27-146.4C762.57,33.47,650.44,3.6,526.45,3.6c-176.87,0-332,64.27-418.57,160.53C43.81,235.28,5.67,324.83,5.67,422.24S43.81,609.35,107.88,680.55c86.76,96.37,239.62,160.27,413.57,160.27s326.74-64,413.55-160.27c4.75-5.31,9.36-10.66,13.71-16.21L935.6,615.2c-61,87.06-162,144.11-276.35,144.11" transform="translate(-5.67 -3.6)"/><path id="path13" class="cls-1" d="M1773.86,820.55l-141.1-526.38a199.12,199.12,0,0,0-260.44-135.58L1068.55,269.05H1381l53.39,199.39a295.08,295.08,0,0,0-193.09-71.69c-146.66,0-265.4,98.27-265.4,219.5s118.74,219.66,265.4,219.66c105.57,0,198.94-51.69,256.53-131.09l31,115.73h245.07m-430.41-81.76A122.52,122.52,0,1,1,1466,616.25,122.47,122.47,0,0,1,1343.45,738.79Z" transform="translate(-5.67 -3.6)"/><path id="path15" class="cls-1" d="M2349.19,146.67a121.19,121.19,0,0,0-51.64,11.43L2102.5,249a122.71,122.71,0,0,0-172.72-90.89l-238.13,111h167.43V820.56h245.08V330.41a61.3,61.3,0,1,1,122.59,0V820.56h245V269.05a122.44,122.44,0,0,0-122.53-122.37" transform="translate(-5.67 -3.6)"/><path id="path17" class="cls-1" d="M3886.11,146.67a123.7,123.7,0,0,0-52,11.43L3639.23,249A122.72,122.72,0,0,0,3466.5,158.1l-238,111h167.37V820.56h245V330.41a61.27,61.27,0,1,1,122.54,0V820.56H4008.6V269.05a122.46,122.46,0,0,0-122.49-122.37" transform="translate(-5.67 -3.6)"/><path id="path19" class="cls-1" d="M3268.11,493.76c0,191.69-155.37,347.06-347,347.06-191.79,0-347.25-155.37-347.25-347.06s155.46-347.09,347.25-347.09c191.64,0,347,155.45,347,347.09M2935.46,252a76.56,76.56,0,0,0-147.9,39.67l119,443.81a76.53,76.53,0,1,0,147.86-39.58l-119-443.9Z" transform="translate(-5.67 -3.6)"/></g></g></g></g></svg>