<svg id="Layer_1" data-name="Layer 1" xmlns="http://www.w3.org/2000/svg" viewBox="0 0 1045.08 844.47"><defs><style>.cls-1{fill:#c5281c;}</style></defs><title>Generali</title><g id="g26"><path id="path2" class="cls-1" d="M1323.58,1208.22v-71.45c44.55,0,61-2.26,69.19,52.77h4.72v-61h-123v8.21h21.14v158.1H1272v8.21h126.48v-64.47h-5.75c-6,49.28-18.68,56.26-53.79,56.26h-16.43V1218.7H1332c15.19,0,24.63,9.44,28.12,36.34h6v-79.67h-6.16s-1.23,33.88-28.13,33.88h-8.21Z" transform="translate(-1123.39 -458.61)"/><path id="path4" class="cls-1" d="M1273.27,1210.69h-69v8.21h23.4v56c-3.49,14-25.66,19.92-31.62,19.92-44.55,0-41.06-64.47-41.06-81.92,0-15.2-1.23-81.93,41.06-81.93,30.39,0,45.58,29.36,51.54,56.26h4.72V1124s-21.15,15.2-21.15,14c0,0-9.44-14-36.34-14-51.53,0-71.45,51.54-71.45,87.88,0,32.85,15.19,90.14,71.45,90.14,17.66,0,29.36-9.45,36.34-18.69l22.18,17.66v-83.16H1272v-7h1.23Z" transform="translate(-1123.39 -458.61)"/><path id="path6" class="cls-1" d="M2080.19,1237.58c-6,49.28-18.69,56.26-53.8,56.26h-2.26V1137h22.18v-8.22h-72.69V1137h22.18v158.09h-17.66l-64.47-171h-9.45s-53.79,154.61-53.79,155.84c0,0-3.49,12.94-12.93,15.19-8.22,0-7-3.49-7-6v-30.59c0-8.22-1.23-25.67-8.21-33.88-9.44-9.44-24.64-9.44-24.64-10.47,0,0,39.84-8.21,39.84-45.58,0-26.9-18.69-39.84-49.28-41.07h-86.65v8.22h22.18v158.09h-22.18v8.22H1773v-8.22h-22.17v-76.17h29.36c51.54,4.72-9.44,84.39,58.52,84.39h42.09v-8.22c-2.26,0-17.66,0-18.69-10.47-1.23-8.21,10.48-36.34,10.48-36.34h58.51s17.66,46.81,18.69,46.81h-19.92v8.22H2088v-64.48Zm-301-28.12h-28.12v-72.69h36.34c21.15,3.49,22.17,28.13,22.17,35.11.21,18.89-8,37.58-30.39,37.58m98.35,30.38,25.67-74.94,26.9,74.94Z" transform="translate(-1123.39 -458.61)"/><path id="path8" class="cls-1" d="M1615.34,1135.54c44.55,0,62-2.26,69.19,52.77h4.72v-61h-178v8.21H1516c6,0,21.15,0,22.18,14h0v100.81l-83.16-123H1409.2v8.21h7c9.44,0,21.15,0,22.17,14v128.74c0,12.93-18.68,17.66-26.89,17.66h0v5.95h62v-5.95c-8.21,0-26.9-4.73-26.9-17.66V1164.7c32.86,46.81,94.86,137,96.1,137h3.49V1149.71c1.23-12.94,15.19-14,22.17-14h19.92v158.09h-23.41v8.22h126.48v-64.47h-6c-5.95,49.27-18.68,56.25-53.79,56.25h-16.43v-76.17h9.45c15.19,0,24.64,9.44,28.13,36.34h6v-79.66h-6s-1.23,33.87-28.13,33.87h-8.21v-72.68Z" transform="translate(-1123.39 -458.61)"/><polygon id="polygon10" class="cls-1" points="971.99 668.92 971.99 678.16 994.37 678.16 994.37 835.23 971.99 835.23 971.99 843.24 1043.44 843.24 1043.44 835.23 1020.03 835.23 1020.03 678.16 1043.44 678.16 1043.44 668.92 971.99 668.92"/><path id="path12" class="cls-1" d="M1978.35,1019.74l22.17-8.21h0c31.62-12.94,36.34-21.15,33.88-42.09V885.05c23.41,61,46.81,103.07,92.6,103.07,5.95,0,12.93-1.23,19.91-2.26l17.66-3.49-12.93-14c-8.22-8.21-11.71-15.19-16.43-23.41-2.26-3.49-3.49-7-5.95-10.47-10.47-17.66-36.35-23.41-57.29-14-9.44-18.68-18.68-43.32-30.39-73.71l-2.25-6c-2.26-4.73-3.49-9.45-6-14V825.3h0c-7-16.42-15.19-31.62-23.4-46.81a241.8,241.8,0,0,0-25.67-36.34c-24.64-28.13-56.26-45.59-94.86-52.77-26.89-4.72-45.58-6-70.22-7-4.72,0-10.47,0-15.19-1.23-10.47-1.24-32.85-2.26-55-4.73-15.19-1.23-29.36-2.26-41.06-3.49,1.23-3.49,1.23-7,1.23-10.47,0-4.72,0-9.44-1.23-12.93h154.61c39.83,0,69.19-17.66,85.41-52.77,39.83,0,68-18.69,85.41-52.77h6c41.06,0,70.22-18.68,87.87-56.26l6-10.47H1610.62c-33.88,0-63.24,22.18-74.95,57.29v1.23c-9.44-24.64-24.63-45.58-45.58-58.52-29.36-17.45-62.21-23.2-87.87-15-8.22,2.26-17.66,6-24.64,10.47-6,4.73-15.2,10.48-21.15,18.69-7,8.21-12.94,18.68-17.66,28.13-3.49,2.26-6,4.72-7,7l-6,11.7v1.23c-7,16.43-16.43,28.13-23.41,37.58-7,8.21-7,16.42-7,21.15,1.23,5.95,3.49,10.47,7,14h0a23.32,23.32,0,0,0-3.49,11.7c0,14,11.7,24.64,26.9,24.64,10.47,0,19.91-4.72,29.36-11.7,3.49-2.26,14-9.45,17.65-9.45a8,8,0,0,1,8.22,8.21c0,11.71-14,17.66-24.64,17.66l-21.15,2.26c-15.19,1.23-22.17,9.45-22.17,16.43a19,19,0,0,0,6,14l1.23,1.23,6,4.72-24.64,37.58c-16.43-15.2-35.11-23.41-51.54-24.64-10.47,0-19.91,2.26-26.89,9.44-2.26,2.26-3.49,3.49-4.73,6h0c-17.65,0-31.62,9.44-38.6,19.91-8.21,11.71-4.72,31.62,4.73,46.82l-58.52,16.42V1075H2168.47v-53.79H1978.76v-1.44ZM2113,945.82c2.25,3.49,3.49,7,5.95,9.45a98,98,0,0,1,7,11.7c-16.42-1.23-29.36-10.47-39.83-26.89,9.24-4.73,22.17-1.24,26.9,5.74M1887,714c33.88,6,61,21.14,81.92,44.55,4.72,4.72,8.21,10.47,12.94,16.43-56.26-7-76.18-15.2-107.8-63.24,4.73,0,8.22,1,12.94,2.26m-24.64-81.93H1755.78c9.44-8.21,16.42-18.68,22.17-30.38h144.14c-11.71,20.94-31.62,30.38-59.75,30.38m84.39-51.53H1840.16a90.23,90.23,0,0,0,23.41-31.62h144.14c-11.71,20.94-31.62,31.62-61,31.62m8.21-80.9h142.9c-14,18.69-32.85,28.13-59.75,28.13H1931.53c9.24-8.21,17.46-17.45,23.41-28.13m-580.85,4.72c3.49-4.72,9.44-9.44,15.19-14a47.07,47.07,0,0,1,18.68-8.21,85.44,85.44,0,0,1,33.88,0l-38.6,23.41c-4.72,0-9.44-1.24-14-1.24-7,0-12.93,0-17.66,1.24,1.23,0,1.23,0,2.47-1.24M1329.53,673a2.43,2.43,0,0,1,2.26-2.26l18.68,1.24c22.18-1.24,45.59-10.48,48-33.88,0-16.43-11.7-31.62-26.9-31.62-8.21,0-18.68,6-29.36,12.93-7,4.73-12.93,8.22-16.42,8.22-2.26,0-4.73-2.26-4.73-3.49v-1.24l11.71-16.42-10.47-7c-2.26-1.23-6-4.72-6-6s1.23-2.25,1.23-3.49a80.15,80.15,0,0,0,14-18.68c3.49-4.72,4.72-7,9.44-7a9.28,9.28,0,0,1,9.44,9.44c0,3.49,3.5,6,8.22,6s7-3.49,9.44-6c0,0,10.47-9.44,4.72-14-5.95-4.72-31.61,6-24.63-17.66l2.25-3.49c2.26-3.49,15.2-12.93,39.84-12.93A67.75,67.75,0,0,1,1405.5,527H1409l53.8-32.85a3.51,3.51,0,0,0,1.23,2.26h0c2.26,16.42-7,35.11-23.41,44.55l-7,3.49,4.72,24.64c-14,4.72-23.4,15.19-23.4,28.13,0,4.72,1.23,10.47,2.25,16.43,1.24,8.21,3.49,16.42,3.49,24.63,0,25.67-35.11,42.09-64.47,41.07H1355c-1.23,0-19.91-1.23-24.64-4.72-.82.82-.82-.42-.82-1.65m-133.46,79.67c4.73-7,14-11.71,25.67-10.47l9.44,1.23,3.49-8.22c1.24-2.25,2.26-4.72,3.49-5.95,2.26-2.26,7-3.49,11.71-3.49,12.93,0,29.36,9.44,42.09,23.41,4.72,4.72,9.44,11.7,12.93,17.65,1.24,1.24,1.24,2.26,2.26,3.49a14.61,14.61,0,0,1,2.26,3.5c0,1.23,7,10.47,7,11.7a193.17,193.17,0,0,0,12.94-18.69v-1.23c-1.24-2.26-3.49-5.95-4.73-8.21l-1.23-1.23h0a4.28,4.28,0,0,1-1.23-2.26c-1.23-2.26-3.49-6-4.72-7l28.13-44.56a90.56,90.56,0,0,0,16.42,1.24h1.23c39.84,0,80.9-23.41,80.9-61v-1.24c0-10.47-2.26-19.91-3.49-28.13-1.23-6-2.26-10.47-2.26-12.93,0-4.72,6-9.45,14-9.45h12.94l-6-32.85c17.66-12.93,29.37-35.11,28.13-55,19.92,15.19,32.86,41.06,35.11,68,1.24,8.21-1.23,18.68-3.49,30.39l-1.23,4.72h0c-4.72,18.68-11.7,38.6-15.19,48l-3.49,8.22,8.21,4.72c14,8.21,23.41,14,23.41,32.85,0,22.17-19.92,38.6-38.6,42.09l-26.9,4.72,22.17,15.2c7,4.72,11.71,12.93,11.71,21.14,0,14-11.71,24.64-25.67,24.64h-8.21l-2.26,7c-8.21,25.67-16.43,38.6-44.55,42.09v-38.6l-1.24-24.63-17.65,17.65c-6,6-16.43,10.47-28.13,12.94V802.92l-123-32.85-43.32,11.7c-9-9.24-11.5-25.66-9-29.15M1161,1019.74l89.11-23.41,89.11,23.41Zm189.72-18.68-101.84-26.9L1147,1001.06V819.55l101.64-27.1,101.83,26.9v181.71Zm47.84-35.32c-9.44,12.94-10.47,31.62-3.49,53.79h-22.18V846.24a100.79,100.79,0,0,0,24.64-7c0,7-1.23,14-2.26,21.15,0,2.26-1.23,3.49-1.23,6l-2.26,12.94h12.94c18.68,0,32.85-3.49,44.55-8.21v72.68a3.14,3.14,0,0,1-3.49,3.49h-3.49c-19.09-1.44-35.52,5.75-43.73,18.48m234.27,4.72c-8.21,9.45-15.19,24.64-10.47,49.28H1489.89c14-1.23,24.64-4.72,31.62-11.7,8.21-9.45,9.44-21.15,9.44-30.39,0-1.23,1.23-3.49,8.21-7l11.71-4.72-7-10.48c-11.71-17.65-6-55-2.26-76.17h1.23c44.56,0,73.71-9.44,104.3-18.68a192.43,192.43,0,0,0,24.64-8.22h0s9.45-2.26,21.15-5.95l43.32,71.45v1.23c4.72,6,4.72,10.47-3.49,18.69l-21.15,23.4-35.11-7h0c-15.6-2.46-33,4.52-43.73,16.22m11.7,49.28c-3.49-15.19-2.25-26.9,4.73-35.11s16.42-9.45,24.64-9.45l41.06,7h7.19l29.36-31.62h0c4.72-6,19.91-23.41,4.72-45.58l-39-63.24c6-1.24,12.93-1.24,18.68-1.24h0a93.71,93.71,0,0,1,41.07,11.71c2.25,5.95,7,14,10.47,23.4,8.21,16.43,18.68,37.58,21.15,45.59,1.23,2.25,3.49,10.47-6,21.14l-73.71,78.44h-84.39Zm253,0H1757l59.75-63.24c11.7-12.93,16.42-28.13,10.47-42.09-2.26-8.21-10.47-24.64-18.68-42.09,23.4,10.47,59.74,21.15,133.45,26.9,9.45,1.23,11.71,3.49,12.94,11.7l3.49,31.62-38.6,8.21a35.67,35.67,0,0,0-28.13,23.41c-4.72,14-2.46,30.39,5.75,45.58m15.4-37.57c2.26-6,6-9.45,11.7-10.48l57.29-12.93-4.73-51.54V906c-1.23-7-5.95-26.9-32.85-29.36-103.07-8.21-126.47-23.41-152.35-39.83h0l-1.23-1.23c-26.89-17.66-53.79-17.66-56.26-17.66-29.36,0-65.49,11.7-69.19,12.93-9.44,2.26-17.66,6-25.66,8.22-32.85,10.47-59.75,19.91-106.56,17.65h-8.22l-2.26,8.22c-1.23,6-15.19,58.51-2.25,91.37-11.71,9.44-11.71,18.68-11.71,21.14,0,11.71-2.26,14-3.49,15.2-5.95,6-23.41,6-38.6,6h-6l-3.49,4.72c-9.45,12.94-29.36,16.43-42.09,12.94-6-17.66-6-30.39,0-38.6,7-9.45,19.91-10.47,25.66-10.47h3.49a24.85,24.85,0,0,0,24.64-24.64v-92.6c4.72-6,7-14,10.47-22.18,22.18-3.49,39.83-22.17,39.83-45.58,0-9.44-2.26-17.65-7-24.64,21.15-10.47,38.6-30.38,38.6-57.28s-14-39.83-26.89-46.81c3.49-10.47,9.44-28.13,14-46.82l17.66-64.47c8.21-25.66,29.36-42.09,53.79-42.09h318.45c-14,18.69-32.85,28.13-59.75,28.13h-191l-10.47,21.15h173.29c-14,21.15-33.87,31.62-62,31.62H1652.5l-10.26,20.53h111.28c-14,21.15-32.85,30.39-61,30.39h-68L1614.11,653h71.45c1.23,1.23,2.26,4.72,2.26,12.93,0,14-11.71,24.64-25.67,24.64-4.72,0-9.44-1.23-16.42-4.72-3.49-1.23-6-2.26-9.45-3.49l-16.42,15.19c3.49,1.23,6,2.26,9.44,3.49h0c14,6,22.18,9.45,32.85,9.45,12.94,0,24.64-6,33.88-14,11.7,1.24,31.62,2.26,51.54,3.5,23.4,2.25,44.55,3.49,56.25,4.72,6,0,10.47,0,16.43,1.23,9.44,0,18.68,1.23,26.9,1.23,43.32,70.22,65.49,79.67,149.88,90.14a288.65,288.65,0,0,1,16.43,33.88V978.88c-3.49,3.49-16.43,9.45-19.92,10.47l-71.45,29.36c-9.24-13.14-12.94-25.87-9.24-36.54" transform="translate(-1123.39 -458.61)"/><polygon id="polygon14" class="cls-1" points="136.95 393.59 204.91 411.25 204.91 388.87 136.95 371.41 136.95 393.59"/><polygon id="polygon16" class="cls-1" points="114.77 371.41 46.81 388.87 46.81 411.25 114.77 393.59 114.77 371.41"/><polygon id="polygon18" class="cls-1" points="114.77 415.76 46.81 433.42 46.81 455.59 114.77 438.14 114.77 415.76"/><polygon id="polygon20" class="cls-1" points="136.95 438.14 204.91 455.59 204.91 433.42 136.95 415.76 136.95 438.14"/><polygon id="polygon22" class="cls-1" points="136.95 482.7 204.91 500.15 204.91 477.97 136.95 460.32 136.95 482.7"/><polygon id="polygon24" class="cls-1" points="114.77 460.32 46.81 477.97 46.81 500.15 114.77 482.7 114.77 460.32"/></g></svg>