<svg id="Layer_1" data-name="Layer 1" xmlns="http://www.w3.org/2000/svg" viewBox="0 0 4646.36 840.69"><title>Loreal</title><polyline id="polyline3" points="2527.77 784.12 3127.4 784.12 3127.4 710.89 2630.6 710.89 2630.6 476.56 3003.72 476.56 3003.72 402.42 2630.6 402.42 2630.6 186.51 3127.4 186.51 3127.4 113.53 2527.77 113.53 2527.77 784.12"/><polyline id="polyline5" points="2839.38 5.15 2758.22 96.36 3013.06 5.15 2839.38 5.15"/><polyline id="polyline7" points="4133.95 710.89 4133.95 113.53 4040.21 113.53 4040.21 784.12 4646.36 784.12 4646.36 710.89 4133.95 710.89"/><path id="path9" d="M3523.64,115.71l-341,670.59h115.25l87.22-173.59h409.09l88,173.59H3996.3L3654.9,115.71H3523.59m-95.3,413L3589,208.38l162.57,320.3Z" transform="translate(-7.76 -2.17)"/><path id="path11" d="M2210.18,505.9c153.63-41,168.58-155.3,167.78-196.16-9.15-119.79-89.9-194-234.9-194H1720.39V786.3h96.37V505H2091.9L2294.32,786.3h121.46S2270.33,597,2210.18,505.9m-80.3-80.15H1816.76V195.1h324c74.64,0,116.61,34.85,131.71,79.09,10.1,30.3,3.59,70.15-13,97.22C2232.45,416.25,2181,425.75,2129.88,425.75Z" transform="translate(-7.76 -2.17)"/><path id="path13" d="M1141.42,2.17c-272,0-457.37,191.92-457.37,423.88,0,244.34,204.75,416.81,457.37,416.81s457.21-170.05,457.21-416.81c0-232.32-187.67-423.88-457.06-423.88m-3.28,757.56c-188.18,0-343.43-151.21-343.43-333.32S942.58,86.06,1145.36,86.06c187.93-1.59,341.57,149.47,343.16,337.4,0,.93,0,1.86,0,2.79,0,182.17-162.32,333.38-350.4,333.38Z" transform="translate(-7.76 -2.17)"/><polyline id="polyline15" points="433.63 350.75 503.17 350.75 629.33 113.53 527.82 113.53 433.63 350.75"/><polyline id="polyline17" points="93.79 710.89 93.79 113.53 0 113.53 0 784.12 606.1 784.12 606.1 710.89 93.79 710.89"/></svg>