<svg id="Layer_1" data-name="Layer 1" xmlns="http://www.w3.org/2000/svg" viewBox="0 0 781.44 166.83"><defs><style>.cls-1{fill:#706d6e;}.cls-2{fill:#f1511b;}.cls-3{fill:#80cc28;}.cls-4{fill:#00adef;}.cls-5{fill:#fbbc09;}</style></defs><title>microsoft</title><path class="cls-1" d="M782.23,76.05V62.31H765.16V40.94l-.57.18-16,4.9-.32.1V62.31h-25.3v-9c0-4.2.94-7.41,2.79-9.55a9.84,9.84,0,0,1,7.82-3.2A18.22,18.22,0,0,1,741,42.23l.63.28V28l-.3-.11a29,29,0,0,0-9.48-1.27,27.74,27.74,0,0,0-13.44,3.23A23,23,0,0,0,709.15,39a27.17,27.17,0,0,0-3.27,13.38v9.92H694V76.05h11.88V134h17.06V76.05h25.3v36.79c0,15.16,7.15,22.84,21.25,22.84a35,35,0,0,0,7.24-.81A19.81,19.81,0,0,0,782,133.2l.23-.13V119.2l-.69.46a12.06,12.06,0,0,1-3.43,1.49,13.16,13.16,0,0,1-3.37.57c-3.31,0-5.75-.89-7.27-2.64s-2.31-4.87-2.31-9.21V76.05ZM655.91,121.73c-6.2,0-11.08-2.06-14.52-6.1s-5.21-9.86-5.21-17.22c0-7.6,1.75-13.55,5.21-17.68s8.28-6.2,14.38-6.2c5.91,0,10.62,2,14,5.93s5.11,9.85,5.11,17.53-1.62,13.76-4.81,17.75-7.93,6-14.15,6Zm.76-61.15c-11.82,0-21.2,3.46-27.89,10.29S618.7,87.15,618.7,99c0,11.21,3.31,20.23,9.84,26.81s15.41,9.9,26.4,9.9c11.45,0,20.64-3.51,27.33-10.43s10.07-16.27,10.07-27.8-3.17-20.48-9.45-27-15.1-9.85-26.22-9.85Zm-65.47,0c-8,0-14.68,2.06-19.76,6.11a19.48,19.48,0,0,0-7.7,15.89,22.27,22.27,0,0,0,1.66,8.89,17.88,17.88,0,0,0,5.1,6.66,44.7,44.7,0,0,0,10.37,5.8,79.13,79.13,0,0,1,8.62,4,12.09,12.09,0,0,1,3.8,3.12,7,7,0,0,1,1.05,4.06c0,4.82-3.6,7.16-11,7.16a30.36,30.36,0,0,1-9.32-1.71,35.21,35.21,0,0,1-9.55-4.84l-.71-.51v16.42l.26.13a42.57,42.57,0,0,0,9,2.79,48.6,48.6,0,0,0,9.66,1.12c8.72,0,15.74-2.07,20.87-6.15a19.87,19.87,0,0,0,7.77-16.27A18.73,18.73,0,0,0,607.16,101c-2.76-3.31-7.54-6.35-14.2-9-5.31-2.13-8.72-3.9-10.12-5.26a7.37,7.37,0,0,1-2-5.52,6.15,6.15,0,0,1,2.59-5.1,11.62,11.62,0,0,1,7.26-2,29.7,29.7,0,0,1,8.64,1.33,27.56,27.56,0,0,1,7.55,3.5l.69.47V63.7l-.26-.11a37.16,37.16,0,0,0-7.67-2.14,46.53,46.53,0,0,0-8.4-.87Zm-71.93,61.15c-6.19,0-11.08-2.06-14.52-6.1s-5.21-9.86-5.21-17.22c0-7.6,1.75-13.55,5.22-17.68s8.27-6.2,14.37-6.2c5.91,0,10.62,2,14,5.93s5.11,9.85,5.11,17.53-1.62,13.76-4.81,17.75-7.93,6-14.16,6ZM520,60.58c-11.82,0-21.2,3.46-27.89,10.29S482.07,87.15,482.07,99c0,11.22,3.31,20.23,9.83,26.81s15.41,9.9,26.4,9.9c11.45,0,20.65-3.51,27.33-10.43s10.08-16.27,10.08-27.8-3.18-20.48-9.45-27S531.15,60.58,520,60.58ZM456.17,74.71V62.31H439.32v71.63h16.85V97.3c0-6.23,1.41-11.35,4.2-15.22a12.88,12.88,0,0,1,10.9-5.75,20,20,0,0,1,5.07.74,13.16,13.16,0,0,1,3.93,1.59l.7.51v-17l-.27-.12a19.12,19.12,0,0,0-17.87,3,22.84,22.84,0,0,0-6.48,9.61Zm-47-14.13a41.58,41.58,0,0,0-20.49,4.93,33.18,33.18,0,0,0-13.52,13.9A44.36,44.36,0,0,0,370.49,100,38.08,38.08,0,0,0,375,118.45a31.78,31.78,0,0,0,12.61,12.75A37.58,37.58,0,0,0,406,135.68c8,0,14.84-1.61,20.32-4.76l.22-.13V115.35l-.7.52a31.71,31.71,0,0,1-8.25,4.29,24.9,24.9,0,0,1-8.07,1.57c-6.61,0-11.92-2.07-15.77-6.15s-5.82-9.82-5.82-17S390,85.4,394,81.06s9.33-6.53,15.81-6.53a27.09,27.09,0,0,1,16,5.58l.7.52V64.36l-.22-.13a28.25,28.25,0,0,0-7.8-2.64,46.72,46.72,0,0,0-9.42-1Zm-50.25,1.73H342V134h16.85V62.31Zm-8.26-30.52a10.13,10.13,0,0,0-7.18,2.82,9.28,9.28,0,0,0-3,7,9,9,0,0,0,3,6.89,10.28,10.28,0,0,0,7.21,2.75,10.41,10.41,0,0,0,7.25-2.75,9,9,0,0,0,3-6.89,9.48,9.48,0,0,0-2.93-7,10,10,0,0,0-7.33-2.89ZM308.59,57v76.92h17.2V34H302l-30.25,74.25L242.37,34H217.6v100h16.16V57h.56l31,76.92h12.2L308,57Z" transform="translate(-0.79 -0.58)"/><path class="cls-2" d="M80.07,79.85H.79V.58H80.07V79.85Z" transform="translate(-0.79 -0.58)"/><path class="cls-3" d="M167.59,79.85H88.32V.58h79.27V79.85Z" transform="translate(-0.79 -0.58)"/><path class="cls-4" d="M80.06,167.41H.79V88.14H80.06v79.27Z" transform="translate(-0.79 -0.58)"/><path class="cls-5" d="M167.59,167.41H88.32V88.14h79.27v79.27Z" transform="translate(-0.79 -0.58)"/></svg>