<svg id="Layer_1" data-name="Layer 1" xmlns="http://www.w3.org/2000/svg" viewBox="0 0 5376.71 850.22"><defs><style>.cls-1{fill:#1d1d1b;stroke:#1d1d1b;stroke-miterlimit:2.61;stroke-width:20.14px;fill-rule:evenodd;}</style></defs><title>Prada</title><path class="cls-1" d="M21.65,19.94l80.83,88V751.85L42.56,836.09l366.91.55-66.13-77.52-6.88-231.89,353.79,1.84C797.48,494.62,907.71,421.15,913,272.64,911.33,128.72,820.29,36.41,714.59,18.05L21.65,19.94ZM323.37,61.11V474.8l271.42,1.89c61.77-48.07,108.57-84.88,106.71-200.3C700.6,182.28,680,100.23,589.16,61.11Z" transform="translate(1.22 3.48)"/><path class="cls-1" d="M1082.81,15.24l80.82,88V747.17l-59.9,84.28,366.89.51-66.12-77.52-6.88-231.89h1.48L1778.15,834.6l314.56-2.48-287.1-239.68H1565.94L1481.47,523l269.94,1.41c107.22-34.45,217.45-107.92,222.76-256.43C1972.48,124,1881.44,31.71,1775.74,13.38l-692.93,1.86Zm301.71,41.18v413.7L1655.94,472c61.78-48.07,108.57-84.88,106.7-200.32-.89-94.09-21.46-176.15-112.32-215.27Z" transform="translate(1.22 3.48)"/><path class="cls-1" d="M2504,108.74l-57.53-74.08-50.93-20.34h316.35l411.82,737.53c17.82,56.95,71.13,49.91,106.71,74.88H2831.72l59.9-18.09-3.74-54.91-103-159.13-350,1.89L2360,750c-2.5,17.46-21.85,30.71-7.49,52.39l28.08,26.19-172.21-3.74,74.89-22.45L2565.9,227.71v-39.3L2504,108.74M2457,544l145.4-265.67,151.37,264.18L2457,544Z" transform="translate(1.22 3.48)"/><path class="cls-1" d="M4534.83,15.92h316.34L5263,753.46c17.82,56.95,71.13,49.91,106.7,74.88H4971l59.9-18.13-3.74-54.9-102.95-159.1-350,1.89-74.87,153.47c-2.52,17.5-21.85,30.76-7.51,52.43l28.08,26.19-172.19-3.73L4422.54,804l282.63-574.69V190L4585.76,36.28l-50.93-20.36Zm61.43,529.67,145.39-265.68L4893,544.06l-296.77,1.53Z" transform="translate(1.22 3.48)"/><path class="cls-1" d="M3339.83,6.64l563.58,3c181.47,41,296.95,148,332.76,334.7l-1.52,145.6c-33.08,166.33-141.51,281.1-332.74,339.19l-565.07,1.53-.07-17.62c85.9-6.25,92.78-15.73,93-64.93V84.68c-1-36.39-8.49-59-91.42-61.54l1.49-16.5Zm320.35,56.78-.55,717.77c74.34.23,138.8,7,175.24-11,82.54-36.38,120.89-92.27,124.39-144.78l-2-423.81c0-67.8-76.22-115.67-120.23-128.13-31.49-11.27-94.28-11.73-176.88-10.07Z" transform="translate(1.22 3.48)"/></svg>