<svg id="Layer_1" data-name="Layer 1" xmlns="http://www.w3.org/2000/svg" viewBox="0 0 3441.27 840.08"><defs><style>.cls-1{fill:#1b3e90;}.cls-2{fill:#fcbf00;}</style></defs><title>reale_mutua</title><g id="Livello_2" data-name="Livello 2"><g id="Livello_1-2" data-name="Livello 1-2"><path class="cls-1" d="M10.72,584.73V835.86H692.5A1472.67,1472.67,0,0,0,10.72,584.73Z" transform="translate(-10.72 -3.78)"/><path class="cls-1" d="M655.51,3.9a301.2,301.2,0,0,1,50.07,167.91c-7.27,141.53-122.44,253.51-264.11,256.81A1620.76,1620.76,0,0,1,842.73,638.91V3.9Z" transform="translate(-10.72 -3.78)"/><path class="cls-1" d="M613.23,165.39A210.85,210.85,0,0,0,535.15,3.9H10.72V331.23C316,358.59,613.23,384.17,613.23,165.39Z" transform="translate(-10.72 -3.78)"/><path class="cls-1" d="M10.72,494.85A1549.67,1549.67,0,0,1,842.78,835.61V750.42A1589,1589,0,0,0,10.72,423.09Z" transform="translate(-10.72 -3.78)"/><path class="cls-2" d="M705.63,171.81A301.54,301.54,0,0,0,655.56,3.9H535.2a210.87,210.87,0,0,1,78,161.49c0,218.78-297.2,193.15-602.51,165.84V423A1589.43,1589.43,0,0,1,842.78,750.37V638.81A1620.92,1620.92,0,0,0,441.47,428.62C583.15,425.32,698.33,313.35,705.63,171.81Z" transform="translate(-10.72 -3.78)"/><path class="cls-1" d="M1421.53,438.5l-89.38-153.69H1164.23V438.5h-88.89V37.58a21.36,21.36,0,0,0-4.2-14.81,33.17,33.17,0,0,0-16.2-8.4V3.9h319.33a132.66,132.66,0,0,1,100.3,39.51,140.52,140.52,0,0,1,37.49,102.82,121.41,121.41,0,0,1-83.41,130.88l93.29,161.39Zm3-295.33A52.32,52.32,0,0,0,1408.4,103a59.61,59.61,0,0,0-43.81-15.66H1164V201.45h200.56A61.88,61.88,0,0,0,1409,185.84a58,58,0,0,0,15.56-42.62Z" transform="translate(-10.72 -3.78)"/><path class="cls-1" d="M2012.83,438.5h-409.9V37.58a22.33,22.33,0,0,0-4.2-14.81,33.46,33.46,0,0,0-16.2-8.4V3.9h416V87.36H1691.68v88.9h213.1v83.46h-213.1v95.42h321V438.5Z" transform="translate(-10.72 -3.78)"/><path class="cls-1" d="M2456.42,438.5,2415,344.67H2180.85l-42,93.83h-89.44l169.29-380a53.48,53.48,0,0,0,7.17-23.41c0-10.17-6.57-16.79-18-21V3.9h145.24l193.3,434.6ZM2297.3,82.57,2217.49,261.5H2377.2Z" transform="translate(-10.72 -3.78)"/><path class="cls-1" d="M2967.22,438.5h-369.8V37.58a21.34,21.34,0,0,0-4.94-14.81,31.09,31.09,0,0,0-15.61-8.4V3.9h109.29V355.14h280.91V438.5Z" transform="translate(-10.72 -3.78)"/><path class="cls-1" d="M3436,438.5h-409.9V37.58a22.33,22.33,0,0,0-4.2-14.81,33.5,33.5,0,0,0-16.2-8.4V3.9h416V87.36H3114.89v88.9h213.05v83.46H3114.89v95.42h321V438.5Z" transform="translate(-10.72 -3.78)"/><path class="cls-1" d="M1424,835.66h-58V634.27h-.79L1251.6,796.84,1138,634.27h-.79V835.66h-58.08V573.92a16.55,16.55,0,0,0-2.72-9.88,21.8,21.8,0,0,0-10.61-5.43v-6.52h80.79l105,150.13,104.6-150.13H1424V835.81Z" transform="translate(-10.72 -3.78)"/><path class="cls-1" d="M1951.05,740.05a89.2,89.2,0,0,1-38.37,74.43,205.24,205.24,0,0,1-211.62,0,89.17,89.17,0,0,1-38.37-74.43V573.52a14.88,14.88,0,0,0-3.16-9.88,19,19,0,0,0-10.18-4.94v-6.61h71.27V731.16a49,49,0,0,0,22.76,42.33,109.86,109.86,0,0,0,63.51,16.09,108.59,108.59,0,0,0,63.81-16.49,49.39,49.39,0,0,0,22.37-41.93V552.09h58v188Z" transform="translate(-10.72 -3.78)"/><path class="cls-1" d="M2444.07,606.41H2330.83v229.2H2272.6V606.41h-93a16.05,16.05,0,0,0-8.25,2.72,23.24,23.24,0,0,0-5.43,10.62H2159V552.09h284.86v54.32Z" transform="translate(-10.72 -3.78)"/><path class="cls-1" d="M2935.47,740.05A88.91,88.91,0,0,1,2897,814.48a205.1,205.1,0,0,1-211.57,0,88.91,88.91,0,0,1-38.37-74.43V573.52a14.82,14.82,0,0,0-3.16-9.88,19,19,0,0,0-10.17-4.94v-6.61h71.31V731.16a48.84,48.84,0,0,0,22.72,42.33,132.49,132.49,0,0,0,127.31-.4,49.38,49.38,0,0,0,22.38-41.93V552.09h58v188Z" transform="translate(-10.72 -3.78)"/><path class="cls-1" d="M3393.23,835.66l-27-61.34H3213.36L3186,835.46h-58.42L3238.05,587.4a34.91,34.91,0,0,0,4.7-15.26c0-6.67-4.3-11-11.76-13.68v-6.37h94.87L3452,835.81ZM3289.51,603.55,3237.26,720h104.26l-52.1-116.75Z" transform="translate(-10.72 -3.78)"/></g></g></svg>